<svg xmlns="http://www.w3.org/2000/svg" width="25.095" height="25.095" viewBox="0 0 25.095 25.095">
  <g id="buildings" transform="translate(-0.005 0)">
    <g id="Group_455" data-name="Group 455" transform="translate(0.005 0)">
      <g id="Group_454" data-name="Group 454" transform="translate(0 0)">
        <path id="Path_530" data-name="Path 530" d="M24.364,23.624H23.58v-12.5a.735.735,0,0,0-.5-.7l-8.32-2.773V5.147a.735.735,0,0,0-.477-.688L2.518.047a.736.736,0,0,0-.993.688V23.624H.74a.735.735,0,1,0,0,1.47H24.364a.735.735,0,0,0,0-1.47Zm-16.958,0H5.936V20.683h1.47Zm2.941,0H8.876V20.683h1.47ZM13.287,8.185V23.624h-1.47V19.948a.735.735,0,0,0-.735-.735H5.2a.735.735,0,0,0-.735.735v3.676H2.995V1.8l10.293,3.86Zm5.882,15.439H17.7V20.683h1.47Zm2.941,0h-1.47V19.948a.735.735,0,0,0-.735-.735H16.963a.735.735,0,0,0-.735.735v3.676h-1.47V9.205l7.352,2.451Z" transform="translate(-0.005 0)" fill="#1b478e"/>
      </g>
    </g>
    <g id="Group_457" data-name="Group 457" transform="translate(4.465 16.272)">
      <g id="Group_456" data-name="Group 456">
        <path id="Path_531" data-name="Path 531" d="M93.21,332h-1.47a.735.735,0,1,0,0,1.47h1.47a.735.735,0,1,0,0-1.47Z" transform="translate(-91.004 -332.003)" fill="#1b478e"/>
      </g>
    </g>
    <g id="Group_459" data-name="Group 459" transform="translate(8.876 16.272)">
      <g id="Group_458" data-name="Group 458">
        <path id="Path_532" data-name="Path 532" d="M183.208,332h-1.47a.735.735,0,1,0,0,1.47h1.47a.735.735,0,0,0,0-1.47Z" transform="translate(-181.002 -332.003)" fill="#1b478e"/>
      </g>
    </g>
    <g id="Group_461" data-name="Group 461" transform="translate(4.465 13.332)">
      <g id="Group_460" data-name="Group 460">
        <path id="Path_533" data-name="Path 533" d="M93.21,272.005h-1.47a.735.735,0,1,0,0,1.47h1.47a.735.735,0,1,0,0-1.47Z" transform="translate(-91.004 -272.005)" fill="#1b478e"/>
      </g>
    </g>
    <g id="Group_463" data-name="Group 463" transform="translate(8.876 13.332)">
      <g id="Group_462" data-name="Group 462">
        <path id="Path_534" data-name="Path 534" d="M183.208,272.005h-1.47a.735.735,0,1,0,0,1.47h1.47a.735.735,0,1,0,0-1.47Z" transform="translate(-181.002 -272.005)" fill="#1b478e"/>
      </g>
    </g>
    <g id="Group_465" data-name="Group 465" transform="translate(16.228 16.272)">
      <g id="Group_464" data-name="Group 464">
        <path id="Path_535" data-name="Path 535" d="M334.674,332h-2.941a.735.735,0,0,0,0,1.47h2.941a.735.735,0,0,0,0-1.47Z" transform="translate(-330.998 -332.003)" fill="#1b478e"/>
      </g>
    </g>
    <g id="Group_467" data-name="Group 467" transform="translate(16.228 13.332)">
      <g id="Group_466" data-name="Group 466">
        <path id="Path_536" data-name="Path 536" d="M334.674,272.005h-2.941a.735.735,0,1,0,0,1.47h2.941a.735.735,0,1,0,0-1.47Z" transform="translate(-330.998 -272.005)" fill="#1b478e"/>
      </g>
    </g>
    <g id="Group_469" data-name="Group 469" transform="translate(4.465 10.391)">
      <g id="Group_468" data-name="Group 468">
        <path id="Path_537" data-name="Path 537" d="M93.21,212.006h-1.47a.735.735,0,0,0,0,1.47h1.47a.735.735,0,1,0,0-1.47Z" transform="translate(-91.004 -212.006)" fill="#1b478e"/>
      </g>
    </g>
    <g id="Group_471" data-name="Group 471" transform="translate(8.876 10.391)">
      <g id="Group_470" data-name="Group 470">
        <path id="Path_538" data-name="Path 538" d="M183.208,212.006h-1.47a.735.735,0,1,0,0,1.47h1.47a.735.735,0,0,0,0-1.47Z" transform="translate(-181.002 -212.006)" fill="#1b478e"/>
      </g>
    </g>
    <g id="Group_473" data-name="Group 473" transform="translate(4.465 7.45)">
      <g id="Group_472" data-name="Group 472">
        <path id="Path_539" data-name="Path 539" d="M93.21,152.007h-1.47a.735.735,0,1,0,0,1.47h1.47a.735.735,0,1,0,0-1.47Z" transform="translate(-91.004 -152.007)" fill="#1b478e"/>
      </g>
    </g>
    <g id="Group_475" data-name="Group 475" transform="translate(8.876 7.45)">
      <g id="Group_474" data-name="Group 474">
        <path id="Path_540" data-name="Path 540" d="M183.208,152.007h-1.47a.735.735,0,1,0,0,1.47h1.47a.735.735,0,0,0,0-1.47Z" transform="translate(-181.002 -152.007)" fill="#1b478e"/>
      </g>
    </g>
  </g>
</svg>
