<svg xmlns="http://www.w3.org/2000/svg" xmlns:xlink="http://www.w3.org/1999/xlink" width="430" height="1170" viewBox="0 0 430 1170">
  <defs>
    <filter id="Rectangle_189" x="0" y="0" width="430" height="1170" filterUnits="userSpaceOnUse">
      <feOffset dy="3" input="SourceAlpha"/>
      <feGaussianBlur stdDeviation="15" result="blur"/>
      <feFlood flood-opacity="0.161"/>
      <feComposite operator="in" in2="blur"/>
      <feComposite in="SourceGraphic"/>
    </filter>
    <clipPath id="clip-path">
      <rect id="Rectangle_181" data-name="Rectangle 181" width="232" height="49" transform="translate(-0.177 -0.075)" fill="#022c64" stroke="#707070" stroke-width="1"/>
    </clipPath>
    <clipPath id="clip-path-2">
      <rect id="Rectangle_179" data-name="Rectangle 179" width="96.97" height="24.244" fill="#022c64"/>
    </clipPath>
    <clipPath id="clip-path-3">
      <rect id="Rectangle_180" data-name="Rectangle 180" width="100.081" height="58.1" fill="#022c64"/>
    </clipPath>
  </defs>
  <g id="Component_77_3" data-name="Component 77 – 3" transform="translate(45 42)">
    <g transform="matrix(1, 0, 0, 1, -45, -42)" filter="url(#Rectangle_189)">
      <rect id="Rectangle_189-2" data-name="Rectangle 189" width="340" height="1080" transform="translate(45 42)" fill="#fff"/>
    </g>
    <g id="Group_512" data-name="Group 512" transform="translate(480.177 181.269)">
      <path id="Path_555" data-name="Path 555" d="M-316.731-56.807c-.627,1.153-1.88,1.755-3.66,1.755-3.009,0-4.312-1.956-4.312-3.234v-.05h12.937v-.4c0-5.064-2.808-8-8.624-8-5.315,0-8.875,2.156-8.875,7.22s3.56,7.22,8.875,7.22c4.036,0,7.1-1.329,8.374-4.513Zm-7.973-4.137v-.05c0-.326.727-2.983,4.212-2.983,3.234,0,4.162,2.256,4.162,2.983v.05Zm16.221,2.683h8.95v-3.41h-8.95Zm30.687-7.245c-.326-5.064-5.791-5.691-9.477-5.691-5.616,0-8.875,1.63-8.875,5.616,0,3.66,3.009,4.588,6.117,5.064l4.438.677c1.93.3,3.034.677,3.034,2.056,0,1.554-1.554,2.231-3.836,2.231-2.106,0-4.563-.426-4.613-2.883h-5.465c.05,5.591,5.716,6.142,10.078,6.142,7.045,0,9.3-2.683,9.3-6.017,0-3.259-2.482-4.488-5.741-5.014l-6.092-.978c-1.254-.2-2.056-.727-2.056-1.68,0-1.2,1.3-2.106,3.309-2.106,1.956,0,4.187.251,4.488,2.582Zm15.494,8.7c-.627,1.153-1.88,1.755-3.66,1.755-3.008,0-4.312-1.956-4.312-3.234v-.05h12.937v-.4c0-5.064-2.808-8-8.624-8-5.315,0-8.875,2.156-8.875,7.22s3.56,7.22,8.875,7.22c4.036,0,7.1-1.329,8.374-4.513Zm-7.973-4.137v-.05c0-.326.727-2.983,4.212-2.983,3.234,0,4.162,2.256,4.162,2.983v.05ZM-254.1-52.8h4.412v-5.791c0-2.607,1.429-4.137,4.438-4.137a8.974,8.974,0,0,1,2.432.4V-66.46a8.654,8.654,0,0,0-1.6-.125c-2.507,0-3.761.928-5.365,2.983h-.05v-2.632H-254.1Zm18.352,0h5.014l6.167-13.438h-5.014l-3.66,9.427-3.66-9.427h-5.014Zm13.363,0h4.412V-66.234h-4.412Zm0-15.093h4.412V-71h-4.412Zm24.87,6.619c-.827-4.438-4.814-5.465-8.223-5.465-5.315,0-8.875,2.156-8.875,7.22s3.435,7.22,8.5,7.22c4.387,0,7.8-1.078,8.6-5.842h-4.563c-.226,1.68-1.7,2.733-3.66,2.733-2.733,0-4.312-1.479-4.312-4.112s1.579-4.112,4.312-4.112c1.78,0,3.134.577,3.66,2.357Zm14.867,4.463c-.627,1.153-1.88,1.755-3.66,1.755-3.008,0-4.312-1.956-4.312-3.234v-.05h12.937v-.4c0-5.064-2.808-8-8.624-8-5.315,0-8.875,2.156-8.875,7.22s3.56,7.22,8.875,7.22c4.036,0,7.1-1.329,8.374-4.513Zm-7.973-4.137v-.05c0-.326.727-2.983,4.212-2.983,3.234,0,4.162,2.256,4.162,2.983v.05Zm15.394,3.986c.226,3.184,2.808,4.663,7.9,4.663,3.836,0,8.3-.552,8.3-4.538,0-2.332-1.454-3.66-5.942-4.137l-3.059-.326c-1.905-.2-2.231-.627-2.231-1.254,0-1.329,1.73-1.429,2.883-1.429,1.279,0,2.733.4,2.983,1.78h4.864c-.3-2.507-1.755-4.538-7.947-4.538-3.66,0-7.346.877-7.346,4.513,0,2.557,1.6,3.435,4.412,3.811l4.011.552c2.131.3,2.507.6,2.507,1.354,0,.978-1.178,1.454-3.184,1.454-2.281,0-3.084-.752-3.284-1.905Z" transform="translate(-68.491 -37.098)" fill="#00a7a5"/>
      <g id="Group_506" data-name="Group 506" transform="translate(-422 -161)">
        <g id="Mask_Group_2" data-name="Mask Group 2" transform="translate(0 0)" clip-path="url(#clip-path)">
          <g id="Group_489" data-name="Group 489" transform="translate(46.496 53.124) rotate(-31)">
            <g id="Group_486" data-name="Group 486" transform="translate(3.111)">
              <g id="Group_485" data-name="Group 485" transform="translate(0 0)" clip-path="url(#clip-path-2)">
                <path id="Path_543" data-name="Path 543" d="M96.965,13.9a5.57,5.57,0,0,0-5.33-5.8c-.142-.006-.285-.007-.428,0H42.152a1.867,1.867,0,0,1-1.536-.606L34.924,1.8l-.052-.051A5.488,5.488,0,0,0,30.5.011H6.238A6.008,6.008,0,0,0,0,5.783l0,.03V24.244H96.965Z" transform="translate(0 0)" fill="#022c64"/>
              </g>
            </g>
            <g id="Group_488" data-name="Group 488" transform="translate(0 27.646)">
              <g id="Group_487" data-name="Group 487" clip-path="url(#clip-path-3)">
                <path id="Path_544" data-name="Path 544" d="M7.144,0H5.29C2.43,0-.364,1.141.039,5.437S5.29,52.512,5.29,52.512C5.894,56.49,7.9,58.1,10.878,58.1H89.645c2.837,0,4.692-1.743,5.134-5.588,0,0,4.961-41.317,5.274-45.92S98.064,0,94.779,0H7.144" transform="translate(0 0)" fill="#022c64"/>
              </g>
            </g>
          </g>
        </g>
      </g>
      <path id="Intersection_4" data-name="Intersection 4" d="M30.6,41.852a4.687,4.687,0,0,1-1.755-1.888,4.621,4.621,0,0,1-.749-2.448,2.092,2.092,0,0,1,1.2-1.736,2.09,2.09,0,0,1,2.1-.174,4.62,4.62,0,0,1,1.746,1.873,4.687,4.687,0,0,1,.758,2.464,2.084,2.084,0,0,1-1.2,1.744,2.518,2.518,0,0,1-1.254.381A1.813,1.813,0,0,1,30.6,41.852Zm-.7-5.036a.989.989,0,0,0-.526.644,1.544,1.544,0,0,0,.077.833,6.327,6.327,0,0,0,.5,1.036,7,7,0,0,0,.659.975,1.473,1.473,0,0,0,.685.487,1.2,1.2,0,0,0,1.355-.782,1.474,1.474,0,0,0-.079-.837,6.961,6.961,0,0,0-.515-1.057,6.326,6.326,0,0,0-.649-.949,1.542,1.542,0,0,0-.683-.483.8.8,0,0,0-.251-.04A1.15,1.15,0,0,0,29.9,36.816Zm3.567-1.921-.773.446L32.1,34.313,34.022,33.2l3.355,5.811-1.148.663Zm4.914,2.466a4.691,4.691,0,0,1-1.754-1.888,4.619,4.619,0,0,1-.749-2.448,2.473,2.473,0,0,1,3.308-1.91,4.621,4.621,0,0,1,1.746,1.873,4.686,4.686,0,0,1,.758,2.463,2.083,2.083,0,0,1-1.2,1.744,2.52,2.52,0,0,1-1.254.381A1.813,1.813,0,0,1,38.382,37.361Zm-.7-5.036a.987.987,0,0,0-.526.644,1.547,1.547,0,0,0,.077.833,6.329,6.329,0,0,0,.5,1.036,6.912,6.912,0,0,0,.659.975,1.47,1.47,0,0,0,.685.487,1.2,1.2,0,0,0,1.355-.783,1.475,1.475,0,0,0-.079-.836,7.009,7.009,0,0,0-.515-1.058,6.35,6.35,0,0,0-.649-.948,1.543,1.543,0,0,0-.682-.483.793.793,0,0,0-.251-.04A1.145,1.145,0,0,0,37.68,32.325ZM41.247,30.4l-.773.446-.594-1.028L41.8,28.712l3.355,5.812-1.148.662Zm-17.786-.28-.773.446-.594-1.028,1.921-1.109,3.355,5.811-1.148.663ZM44,28.811l-.774.447-.594-1.029,1.921-1.109,3.355,5.811-1.148.663Zm-17.786-.28-.773.447-.594-1.028,1.921-1.109,3.355,5.811-1.148.663Zm22.7,2.746a4.687,4.687,0,0,1-1.755-1.888,4.619,4.619,0,0,1-.749-2.448,2.472,2.472,0,0,1,3.308-1.909A4.612,4.612,0,0,1,51.469,26.9a4.687,4.687,0,0,1,.758,2.464,2.085,2.085,0,0,1-1.2,1.744,2.52,2.52,0,0,1-1.254.381A1.812,1.812,0,0,1,48.919,31.278Zm-.7-5.036a.989.989,0,0,0-.526.644,1.544,1.544,0,0,0,.077.833,6.314,6.314,0,0,0,.5,1.036,7,7,0,0,0,.659.975,1.476,1.476,0,0,0,.685.487,1.2,1.2,0,0,0,1.355-.782,1.473,1.473,0,0,0-.079-.837,6.947,6.947,0,0,0-.515-1.058,6.325,6.325,0,0,0-.649-.949,1.545,1.545,0,0,0-.683-.483.793.793,0,0,0-.251-.04A1.146,1.146,0,0,0,48.217,26.241ZM31.133,31a4.686,4.686,0,0,1-1.754-1.888,4.618,4.618,0,0,1-.749-2.448,2.091,2.091,0,0,1,1.2-1.736,2.09,2.09,0,0,1,2.105-.174,4.618,4.618,0,0,1,1.746,1.873,4.69,4.69,0,0,1,.758,2.464,2.083,2.083,0,0,1-1.2,1.744,2.516,2.516,0,0,1-1.254.381A1.816,1.816,0,0,1,31.133,31Zm-.7-5.036a.986.986,0,0,0-.526.644,1.544,1.544,0,0,0,.077.833,6.334,6.334,0,0,0,.5,1.036,6.92,6.92,0,0,0,.659.975,1.471,1.471,0,0,0,.685.487,1.2,1.2,0,0,0,1.355-.782,1.474,1.474,0,0,0-.079-.836,6.99,6.99,0,0,0-.515-1.058,6.347,6.347,0,0,0-.649-.949,1.541,1.541,0,0,0-.682-.483.789.789,0,0,0-.251-.04A1.151,1.151,0,0,0,30.43,25.961Zm21.353-1.641-.773.446-.594-1.028,1.921-1.109,3.355,5.811-1.148.663ZM34,24.04l-.774.446-.594-1.028,1.921-1.109,3.355,5.811-1.148.663ZM19.865,27.278A4.687,4.687,0,0,1,18.11,25.39a4.622,4.622,0,0,1-.749-2.448,2.092,2.092,0,0,1,1.2-1.736,2.089,2.089,0,0,1,2.1-.174A4.615,4.615,0,0,1,22.415,22.9a4.687,4.687,0,0,1,.758,2.464,2.085,2.085,0,0,1-1.2,1.744,2.517,2.517,0,0,1-1.254.381A1.814,1.814,0,0,1,19.865,27.278Zm-.7-5.036a.988.988,0,0,0-.526.644,1.545,1.545,0,0,0,.077.833,6.327,6.327,0,0,0,.5,1.036,7,7,0,0,0,.659.975,1.475,1.475,0,0,0,.685.487,1.2,1.2,0,0,0,1.355-.782,1.473,1.473,0,0,0-.079-.837,6.952,6.952,0,0,0-.515-1.058,6.331,6.331,0,0,0-.649-.949,1.544,1.544,0,0,0-.683-.483.789.789,0,0,0-.251-.04A1.145,1.145,0,0,0,19.163,22.242ZM56.7,26.786A4.685,4.685,0,0,1,54.943,24.9a4.616,4.616,0,0,1-.749-2.448A2.473,2.473,0,0,1,57.5,20.54a4.617,4.617,0,0,1,1.745,1.872,4.688,4.688,0,0,1,.758,2.464,2.083,2.083,0,0,1-1.2,1.744A2.518,2.518,0,0,1,57.554,27,1.815,1.815,0,0,1,56.7,26.786ZM56,21.75a.987.987,0,0,0-.526.644,1.541,1.541,0,0,0,.077.833,6.333,6.333,0,0,0,.5,1.036,6.941,6.941,0,0,0,.659.975,1.471,1.471,0,0,0,.685.487,1.2,1.2,0,0,0,1.355-.782,1.475,1.475,0,0,0-.079-.836,6.991,6.991,0,0,0-.515-1.058A6.294,6.294,0,0,0,57.5,22.1a1.541,1.541,0,0,0-.682-.483.8.8,0,0,0-.251-.04A1.149,1.149,0,0,0,56,21.75ZM38.912,26.506a4.689,4.689,0,0,1-1.755-1.888,4.619,4.619,0,0,1-.749-2.448,2.473,2.473,0,0,1,3.308-1.91,4.625,4.625,0,0,1,1.746,1.873A4.689,4.689,0,0,1,42.22,24.6a2.084,2.084,0,0,1-1.2,1.744,2.517,2.517,0,0,1-1.254.381A1.813,1.813,0,0,1,38.912,26.506Zm-.7-5.036a.989.989,0,0,0-.526.644,1.544,1.544,0,0,0,.077.833,6.314,6.314,0,0,0,.5,1.036,7,7,0,0,0,.659.975,1.472,1.472,0,0,0,.685.487,1.2,1.2,0,0,0,1.355-.782,1.472,1.472,0,0,0-.079-.836,6.964,6.964,0,0,0-.515-1.058,6.337,6.337,0,0,0-.649-.948,1.548,1.548,0,0,0-.683-.483.8.8,0,0,0-.251-.04A1.147,1.147,0,0,0,38.21,21.47Zm-15.48-1.149-.773.446-.594-1.028,1.921-1.109,3.355,5.811-1.148.663Zm36.832-.492-.773.447L58.2,19.248l1.921-1.109,3.355,5.811-1.148.663ZM43.933,23.607a4.687,4.687,0,0,1-1.754-1.889,4.616,4.616,0,0,1-.749-2.448,2.473,2.473,0,0,1,3.308-1.91,4.622,4.622,0,0,1,1.746,1.873,4.691,4.691,0,0,1,.758,2.464,2.082,2.082,0,0,1-1.2,1.744,2.516,2.516,0,0,1-1.254.381A1.811,1.811,0,0,1,43.933,23.607Zm-.7-5.036a.987.987,0,0,0-.526.644,1.544,1.544,0,0,0,.077.833,6.332,6.332,0,0,0,.5,1.036,6.956,6.956,0,0,0,.659.975,1.47,1.47,0,0,0,.685.486,1.2,1.2,0,0,0,1.355-.782,1.475,1.475,0,0,0-.079-.836,7,7,0,0,0-.515-1.058,6.356,6.356,0,0,0-.649-.948,1.547,1.547,0,0,0-.682-.483.8.8,0,0,0-.251-.04A1.147,1.147,0,0,0,43.231,18.571Zm19.088-.334-.773.446-.594-1.028,1.921-1.109,3.355,5.811-1.148.663Zm-34.675,4.55A4.693,4.693,0,0,1,25.889,20.9a4.619,4.619,0,0,1-.749-2.448,2.091,2.091,0,0,1,1.2-1.736,2.091,2.091,0,0,1,2.105-.174,4.619,4.619,0,0,1,1.746,1.873,4.69,4.69,0,0,1,.758,2.464,2.083,2.083,0,0,1-1.2,1.744A2.519,2.519,0,0,1,28.5,23,1.816,1.816,0,0,1,27.644,22.788Zm-.7-5.037a.987.987,0,0,0-.526.644,1.545,1.545,0,0,0,.077.833,6.344,6.344,0,0,0,.5,1.036,6.934,6.934,0,0,0,.659.975,1.47,1.47,0,0,0,.685.487,1.2,1.2,0,0,0,1.355-.782,1.474,1.474,0,0,0-.079-.836,7.009,7.009,0,0,0-.515-1.058,6.343,6.343,0,0,0-.649-.948,1.549,1.549,0,0,0-.682-.483.8.8,0,0,0-.251-.04A1.147,1.147,0,0,0,26.942,17.751ZM46.8,16.65l-.774.446-.594-1.028,1.921-1.109,3.355,5.811-1.148.663ZM67.234,20.7a4.689,4.689,0,0,1-1.754-1.889,4.617,4.617,0,0,1-.749-2.448,2.091,2.091,0,0,1,1.2-1.736,2.091,2.091,0,0,1,2.105-.174,4.621,4.621,0,0,1,1.746,1.872,4.689,4.689,0,0,1,.758,2.464,2.083,2.083,0,0,1-1.2,1.744,2.518,2.518,0,0,1-1.254.381A1.813,1.813,0,0,1,67.234,20.7Zm-.7-5.036a.988.988,0,0,0-.526.644,1.546,1.546,0,0,0,.077.832,6.318,6.318,0,0,0,.5,1.036,6.964,6.964,0,0,0,.659.975,1.472,1.472,0,0,0,.685.487,1.2,1.2,0,0,0,1.355-.782,1.472,1.472,0,0,0-.079-.836,7,7,0,0,0-.515-1.058,6.317,6.317,0,0,0-.649-.948,1.545,1.545,0,0,0-.682-.483.8.8,0,0,0-.251-.04A1.147,1.147,0,0,0,66.532,15.667Zm-36.023.163-.774.447-.594-1.029,1.921-1.109,3.355,5.811-1.148.663Zm-16.78,4.53a4.685,4.685,0,0,1-1.754-1.889,4.615,4.615,0,0,1-.749-2.448,2.091,2.091,0,0,1,1.2-1.736,2.091,2.091,0,0,1,2.105-.174,4.615,4.615,0,0,1,1.745,1.873,4.688,4.688,0,0,1,.758,2.464,2.084,2.084,0,0,1-1.2,1.744,2.518,2.518,0,0,1-1.254.381A1.815,1.815,0,0,1,13.729,20.36Zm-.7-5.036a.987.987,0,0,0-.526.644,1.541,1.541,0,0,0,.077.833,6.341,6.341,0,0,0,.5,1.036,6.969,6.969,0,0,0,.658.975,1.473,1.473,0,0,0,.685.487,1.2,1.2,0,0,0,1.355-.782,1.476,1.476,0,0,0-.079-.837,7,7,0,0,0-.515-1.058,6.311,6.311,0,0,0-.649-.949,1.541,1.541,0,0,0-.683-.482.789.789,0,0,0-.251-.041A1.15,1.15,0,0,0,13.026,15.323Zm38.686,3.793a4.681,4.681,0,0,1-1.755-1.888,4.617,4.617,0,0,1-.749-2.448,2.091,2.091,0,0,1,1.2-1.736,2.09,2.09,0,0,1,2.1-.174,4.618,4.618,0,0,1,1.746,1.873,4.687,4.687,0,0,1,.758,2.464,2.085,2.085,0,0,1-1.2,1.744,2.521,2.521,0,0,1-1.254.381A1.814,1.814,0,0,1,51.712,19.116Zm-.7-5.036a.988.988,0,0,0-.526.644,1.544,1.544,0,0,0,.077.832,6.3,6.3,0,0,0,.5,1.036,7.009,7.009,0,0,0,.659.975,1.472,1.472,0,0,0,.685.487,1.2,1.2,0,0,0,1.355-.782,1.473,1.473,0,0,0-.079-.837,6.952,6.952,0,0,0-.515-1.058,6.319,6.319,0,0,0-.649-.948,1.546,1.546,0,0,0-.683-.483.8.8,0,0,0-.251-.04A1.147,1.147,0,0,0,51.01,14.08Zm-17.744.158-.773.446L31.9,13.656l1.921-1.109,3.355,5.811-1.148.663ZM72.255,17.8A4.682,4.682,0,0,1,70.5,15.916a4.617,4.617,0,0,1-.749-2.448,2.091,2.091,0,0,1,1.2-1.736,2.091,2.091,0,0,1,2.105-.174,4.62,4.62,0,0,1,1.745,1.873,4.689,4.689,0,0,1,.758,2.464,2.083,2.083,0,0,1-1.2,1.744,2.521,2.521,0,0,1-1.254.381A1.811,1.811,0,0,1,72.255,17.8Zm-.7-5.036a.987.987,0,0,0-.526.644,1.541,1.541,0,0,0,.077.833,6.331,6.331,0,0,0,.5,1.036,6.958,6.958,0,0,0,.658.975,1.473,1.473,0,0,0,.685.487A1.2,1.2,0,0,0,74.3,15.96a1.476,1.476,0,0,0-.079-.837,7,7,0,0,0-.515-1.058,6.318,6.318,0,0,0-.649-.948,1.544,1.544,0,0,0-.683-.483.8.8,0,0,0-.251-.04A1.147,1.147,0,0,0,71.553,12.768Zm-52.8,4.693A4.688,4.688,0,0,1,17,15.572a4.618,4.618,0,0,1-.749-2.448,2.09,2.09,0,0,1,1.2-1.736,2.091,2.091,0,0,1,2.1-.174A4.619,4.619,0,0,1,21.3,13.087a4.687,4.687,0,0,1,.758,2.464,2.086,2.086,0,0,1-1.2,1.745,2.521,2.521,0,0,1-1.254.381A1.814,1.814,0,0,1,18.75,17.461Zm-.7-5.036a.989.989,0,0,0-.526.644,1.544,1.544,0,0,0,.077.833,6.314,6.314,0,0,0,.5,1.036,7,7,0,0,0,.659.975,1.47,1.47,0,0,0,.685.487,1.2,1.2,0,0,0,1.355-.782,1.473,1.473,0,0,0-.079-.837,6.972,6.972,0,0,0-.515-1.058,6.357,6.357,0,0,0-.649-.949,1.545,1.545,0,0,0-.683-.482.789.789,0,0,0-.251-.041A1.151,1.151,0,0,0,18.048,12.424Zm36.528-.265-.773.446-.594-1.028,1.921-1.109,3.355,5.811-1.148.662ZM38.18,16.7a4.69,4.69,0,0,1-1.754-1.889,4.616,4.616,0,0,1-.749-2.448,2.09,2.09,0,0,1,1.2-1.736,2.09,2.09,0,0,1,2.1-.174A4.62,4.62,0,0,1,40.73,12.33a4.688,4.688,0,0,1,.758,2.464,2.084,2.084,0,0,1-1.2,1.744,2.517,2.517,0,0,1-1.254.381A1.813,1.813,0,0,1,38.18,16.7Zm-.7-5.036a.988.988,0,0,0-.526.644,1.547,1.547,0,0,0,.077.833,6.33,6.33,0,0,0,.5,1.036,7.015,7.015,0,0,0,.659.975,1.471,1.471,0,0,0,.685.486,1.2,1.2,0,0,0,1.355-.782,1.472,1.472,0,0,0-.079-.836,7,7,0,0,0-.515-1.058,6.358,6.358,0,0,0-.649-.948,1.549,1.549,0,0,0-.683-.483.8.8,0,0,0-.251-.04A1.146,1.146,0,0,0,37.478,11.668Zm19.856-1.1-.773.446-.594-1.028,1.921-1.109,3.355,5.811L60.1,15.35Zm19.943,4.338a4.687,4.687,0,0,1-1.755-1.889,4.617,4.617,0,0,1-.749-2.448,2.091,2.091,0,0,1,1.2-1.736,2.091,2.091,0,0,1,2.1-.174,4.619,4.619,0,0,1,1.746,1.873A4.686,4.686,0,0,1,80.585,13a2.084,2.084,0,0,1-1.2,1.744,2.52,2.52,0,0,1-1.254.381A1.811,1.811,0,0,1,77.277,14.905Zm-.7-5.036a.987.987,0,0,0-.526.644,1.544,1.544,0,0,0,.077.833,6.312,6.312,0,0,0,.5,1.036,7.008,7.008,0,0,0,.659.975,1.476,1.476,0,0,0,.685.487,1.2,1.2,0,0,0,1.355-.783,1.472,1.472,0,0,0-.079-.836,6.949,6.949,0,0,0-.515-1.058,6.344,6.344,0,0,0-.649-.948,1.548,1.548,0,0,0-.683-.483.8.8,0,0,0-.251-.04A1.147,1.147,0,0,0,76.574,9.869Zm-52.8,4.693a4.687,4.687,0,0,1-1.754-1.889,4.618,4.618,0,0,1-.749-2.448,2.091,2.091,0,0,1,1.2-1.736,2.09,2.09,0,0,1,2.105-.174,4.615,4.615,0,0,1,1.745,1.873,4.687,4.687,0,0,1,.758,2.464,2.083,2.083,0,0,1-1.2,1.744,2.518,2.518,0,0,1-1.254.381A1.815,1.815,0,0,1,23.772,14.562Zm-.7-5.036a.988.988,0,0,0-.526.644A1.54,1.54,0,0,0,22.62,11a6.346,6.346,0,0,0,.5,1.036,6.938,6.938,0,0,0,.659.975,1.47,1.47,0,0,0,.685.487,1.2,1.2,0,0,0,1.355-.782,1.476,1.476,0,0,0-.079-.837,7,7,0,0,0-.515-1.057,6.323,6.323,0,0,0-.649-.949,1.546,1.546,0,0,0-.682-.483.8.8,0,0,0-.251-.04A1.151,1.151,0,0,0,23.069,9.525Zm17.976.222-.773.446-.594-1.028L41.6,8.056l3.355,5.811-1.148.663ZM5.819,9.59l-.773.446L4.452,9.008,6.373,7.9,9.728,13.71l-1.148.663Zm56.429,3.443a4.692,4.692,0,0,1-1.754-1.889A4.614,4.614,0,0,1,59.745,8.7a2.09,2.09,0,0,1,1.2-1.736,2.092,2.092,0,0,1,2.105-.174A4.618,4.618,0,0,1,64.8,8.659a4.688,4.688,0,0,1,.758,2.464,2.084,2.084,0,0,1-1.2,1.744,2.519,2.519,0,0,1-1.254.381A1.817,1.817,0,0,1,62.248,13.034ZM61.546,8a.986.986,0,0,0-.526.644,1.541,1.541,0,0,0,.077.833,6.338,6.338,0,0,0,.5,1.036,6.98,6.98,0,0,0,.658.975,1.473,1.473,0,0,0,.685.487,1.2,1.2,0,0,0,1.355-.782,1.475,1.475,0,0,0-.079-.836A7,7,0,0,0,63.7,9.294a6.318,6.318,0,0,0-.649-.948,1.544,1.544,0,0,0-.683-.483.8.8,0,0,0-.251-.04A1.147,1.147,0,0,0,61.546,8ZM8.577,8,7.8,8.445,7.21,7.416,9.131,6.307l3.355,5.811-1.148.663Zm71.565-.05-.773.447-.594-1.028L80.7,6.257l3.355,5.811-1.148.663ZM45.959,12.213A4.68,4.68,0,0,1,44.2,10.324a4.614,4.614,0,0,1-.749-2.448,2.091,2.091,0,0,1,1.2-1.736,2.091,2.091,0,0,1,2.105-.174,4.617,4.617,0,0,1,1.745,1.873,4.687,4.687,0,0,1,.758,2.464,2.085,2.085,0,0,1-1.2,1.745,2.521,2.521,0,0,1-1.254.381A1.815,1.815,0,0,1,45.959,12.213Zm-.7-5.036a.986.986,0,0,0-.526.644,1.54,1.54,0,0,0,.077.832,6.342,6.342,0,0,0,.5,1.036,6.97,6.97,0,0,0,.658.975,1.475,1.475,0,0,0,.685.487A1.2,1.2,0,0,0,48,10.369a1.476,1.476,0,0,0-.079-.837,7,7,0,0,0-.515-1.058,6.306,6.306,0,0,0-.649-.948,1.543,1.543,0,0,0-.683-.483A.8.8,0,0,0,45.827,7,1.147,1.147,0,0,0,45.257,7.177ZM26.636,7.6l-.773.446-.594-1.028L27.19,5.913l3.355,5.811-1.148.663ZM65.113,6.076l-.773.447-.594-1.028,1.921-1.109L69.022,10.2l-1.148.663ZM29.393,6.012l-.773.447L28.026,5.43l1.921-1.109L33.3,10.132l-1.148.663Zm-15.9,4.452a4.685,4.685,0,0,1-1.754-1.888,4.618,4.618,0,0,1-.749-2.448,2.091,2.091,0,0,1,1.2-1.736A2.091,2.091,0,0,1,14.3,4.218,4.615,4.615,0,0,1,16.041,6.09,4.687,4.687,0,0,1,16.8,8.554,2.083,2.083,0,0,1,15.6,10.3a2.518,2.518,0,0,1-1.254.381A1.815,1.815,0,0,1,13.491,10.464Zm-.7-5.036a.987.987,0,0,0-.526.644,1.54,1.54,0,0,0,.077.832,6.319,6.319,0,0,0,.5,1.036,6.974,6.974,0,0,0,.658.975,1.472,1.472,0,0,0,.685.487,1.2,1.2,0,0,0,1.355-.782,1.476,1.476,0,0,0-.079-.837,6.985,6.985,0,0,0-.515-1.058,6.325,6.325,0,0,0-.649-.949,1.54,1.54,0,0,0-.683-.483.789.789,0,0,0-.251-.04A1.151,1.151,0,0,0,12.789,5.428Zm72.267,4.986A4.685,4.685,0,0,1,83.3,8.526a4.619,4.619,0,0,1-.749-2.448,2.091,2.091,0,0,1,1.2-1.736,2.091,2.091,0,0,1,2.105-.174A4.614,4.614,0,0,1,87.605,6.04,4.688,4.688,0,0,1,88.364,8.5a2.084,2.084,0,0,1-1.2,1.744,2.518,2.518,0,0,1-1.254.381A1.815,1.815,0,0,1,85.056,10.414Zm-.7-5.036a.986.986,0,0,0-.526.644,1.541,1.541,0,0,0,.077.833,6.332,6.332,0,0,0,.5,1.036,6.923,6.923,0,0,0,.658.975,1.477,1.477,0,0,0,.685.487A1.2,1.2,0,0,0,87.1,8.57a1.476,1.476,0,0,0-.079-.837,7.006,7.006,0,0,0-.515-1.057,6.343,6.343,0,0,0-.649-.949,1.541,1.541,0,0,0-.683-.483.785.785,0,0,0-.251-.04A1.149,1.149,0,0,0,84.353,5.378Zm-35.53-.123L48.05,5.7l-.594-1.028,1.921-1.109,3.355,5.811-1.148.662ZM67.87,4.484,67.1,4.93,66.5,3.9l1.921-1.109L71.779,8.6l-1.148.663ZM34.308,8.478A4.687,4.687,0,0,1,32.553,6.59,4.621,4.621,0,0,1,31.8,4.142a2.091,2.091,0,0,1,1.2-1.736,2.091,2.091,0,0,1,2.105-.174A4.617,4.617,0,0,1,36.858,4.1a4.687,4.687,0,0,1,.758,2.464,2.083,2.083,0,0,1-1.2,1.744,2.518,2.518,0,0,1-1.254.381A1.814,1.814,0,0,1,34.308,8.478Zm-.7-5.036a.986.986,0,0,0-.526.644,1.548,1.548,0,0,0,.077.833,6.353,6.353,0,0,0,.5,1.036,7,7,0,0,0,.659.974A1.476,1.476,0,0,0,35,7.417a1.012,1.012,0,0,0,.823-.14,1.011,1.011,0,0,0,.533-.642,1.472,1.472,0,0,0-.079-.836,6.967,6.967,0,0,0-.515-1.058,6.317,6.317,0,0,0-.649-.949,1.542,1.542,0,0,0-.682-.483.8.8,0,0,0-.251-.04A1.147,1.147,0,0,0,33.606,3.442Zm17.975.221-.773.446-.594-1.028,1.921-1.109L55.49,7.784l-1.148.663ZM16.355,3.507l-.773.446-.594-1.028L16.91,1.816l3.355,5.811-1.148.663Zm71.565-.05-.773.446-.594-1.028,1.921-1.109,3.355,5.811-1.148.663ZM2.506,7.512A4.685,4.685,0,0,1,.752,5.623,4.618,4.618,0,0,1,0,3.176a2.091,2.091,0,0,1,1.2-1.736,2.09,2.09,0,0,1,2.1-.174A4.614,4.614,0,0,1,5.056,3.139,4.686,4.686,0,0,1,5.815,5.6a2.085,2.085,0,0,1-1.2,1.744,2.518,2.518,0,0,1-1.254.381A1.815,1.815,0,0,1,2.506,7.512ZM1.8,2.475a.989.989,0,0,0-.526.644,1.544,1.544,0,0,0,.077.833,6.3,6.3,0,0,0,.5,1.036,7,7,0,0,0,.659.975A1.471,1.471,0,0,0,3.2,6.45a1.009,1.009,0,0,0,.823-.14,1.008,1.008,0,0,0,.533-.642,1.473,1.473,0,0,0-.079-.837,6.958,6.958,0,0,0-.515-1.058,6.357,6.357,0,0,0-.649-.949,1.543,1.543,0,0,0-.683-.482A.8.8,0,0,0,2.374,2.3,1.151,1.151,0,0,0,1.8,2.475ZM72.785,6.95A4.69,4.69,0,0,1,71.03,5.061a4.617,4.617,0,0,1-.749-2.448,2.091,2.091,0,0,1,1.2-1.736A2.092,2.092,0,0,1,73.589.7a4.623,4.623,0,0,1,1.746,1.873,4.688,4.688,0,0,1,.758,2.464,2.083,2.083,0,0,1-1.2,1.744,2.518,2.518,0,0,1-1.254.381A1.814,1.814,0,0,1,72.785,6.95Zm-.7-5.036a.987.987,0,0,0-.526.644,1.547,1.547,0,0,0,.077.833,6.345,6.345,0,0,0,.5,1.036,6.934,6.934,0,0,0,.659.975,1.47,1.47,0,0,0,.685.487,1.01,1.01,0,0,0,.823-.14,1.012,1.012,0,0,0,.533-.642,1.475,1.475,0,0,0-.079-.836,6.993,6.993,0,0,0-.515-1.058,6.362,6.362,0,0,0-.649-.948A1.546,1.546,0,0,0,72.9,1.78a.8.8,0,0,0-.251-.04A1.147,1.147,0,0,0,72.082,1.914Zm-52.97,0-.773.447-.594-1.028L19.667.224l3.355,5.811L21.874,6.7ZM56.5,6.13a4.693,4.693,0,0,1-1.754-1.889,4.617,4.617,0,0,1-.749-2.448,2.09,2.09,0,0,1,1.2-1.736L55.3,0H57.5a4.933,4.933,0,0,1,1.543,1.756A4.687,4.687,0,0,1,59.8,4.22a2.083,2.083,0,0,1-1.2,1.744,2.518,2.518,0,0,1-1.254.381A1.817,1.817,0,0,1,56.5,6.13Zm-.7-5.037a.985.985,0,0,0-.526.644,1.545,1.545,0,0,0,.077.833,6.337,6.337,0,0,0,.5,1.036,6.949,6.949,0,0,0,.659.975,1.471,1.471,0,0,0,.685.487,1.011,1.011,0,0,0,.823-.14,1.012,1.012,0,0,0,.533-.642,1.475,1.475,0,0,0-.079-.836,7,7,0,0,0-.515-1.058,6.337,6.337,0,0,0-.649-.948A1.545,1.545,0,0,0,56.614.96a.8.8,0,0,0-.251-.04A1.147,1.147,0,0,0,55.793,1.094Zm-18.621.428-.773.446L35.805.939,37.432,0h.392l3.257,5.641L39.934,6.3ZM5.371.555,4.6,1,4.019,0H6.581l2.7,4.675-1.148.663ZM24.027,4.381a4.686,4.686,0,0,1-1.754-1.888A4.617,4.617,0,0,1,21.524.045c0-.015,0-.03,0-.045H22.8a1.553,1.553,0,0,0,.079.821,6.331,6.331,0,0,0,.5,1.036,6.965,6.965,0,0,0,.659.975,1.475,1.475,0,0,0,.685.487,1.012,1.012,0,0,0,.823-.14,1.012,1.012,0,0,0,.533-.643,1.476,1.476,0,0,0-.079-.837A7,7,0,0,0,25.477.642Q25.266.277,25.068,0h1.506l0,.007a4.687,4.687,0,0,1,.758,2.464,2.083,2.083,0,0,1-1.2,1.744,2.517,2.517,0,0,1-1.254.381A1.814,1.814,0,0,1,24.027,4.381Zm53.779-.33a4.688,4.688,0,0,1-1.754-1.889A5,5,0,0,1,75.3,0h1.248a1.76,1.76,0,0,0,.1.492,6.338,6.338,0,0,0,.5,1.035,7,7,0,0,0,.659.975,1.473,1.473,0,0,0,.685.487,1.011,1.011,0,0,0,.823-.14,1.012,1.012,0,0,0,.533-.642,1.472,1.472,0,0,0-.079-.836A6.948,6.948,0,0,0,79.256.312q-.1-.165-.188-.312h1.465a4.354,4.354,0,0,1,.581,2.141,2.083,2.083,0,0,1-1.2,1.744,2.52,2.52,0,0,1-1.254.381A1.812,1.812,0,0,1,77.806,4.051ZM42.087,3.987A4.692,4.692,0,0,1,40.332,2.1,5.094,5.094,0,0,1,39.59,0h1.248a1.8,1.8,0,0,0,.1.428,6.361,6.361,0,0,0,.5,1.036,7.018,7.018,0,0,0,.659.975,1.473,1.473,0,0,0,.685.487,1.011,1.011,0,0,0,.823-.14,1.011,1.011,0,0,0,.533-.642,1.473,1.473,0,0,0-.079-.836A6.952,6.952,0,0,0,43.536.249Q43.462.119,43.388,0h1.458a4.29,4.29,0,0,1,.549,2.078,2.083,2.083,0,0,1-1.2,1.744,2.52,2.52,0,0,1-1.254.381A1.812,1.812,0,0,1,42.087,3.987Zm19.43-.757a4.691,4.691,0,0,1-1.755-1.889A6.283,6.283,0,0,1,59.165,0H60.5a7.711,7.711,0,0,0,.365.707,7.026,7.026,0,0,0,.659.975,1.476,1.476,0,0,0,.685.487,1.011,1.011,0,0,0,.823-.14,1.012,1.012,0,0,0,.533-.642A1.472,1.472,0,0,0,63.482.55a5.411,5.411,0,0,0-.24-.55H64.6a3.6,3.6,0,0,1,.223,1.321,2.083,2.083,0,0,1-1.2,1.744,2.52,2.52,0,0,1-1.254.381A1.811,1.811,0,0,1,61.517,3.231Zm-51.232-.21A4.687,4.687,0,0,1,8.531,1.132,6.634,6.634,0,0,1,8,0H9.364q.115.234.267.5a6.957,6.957,0,0,0,.659.975,1.471,1.471,0,0,0,.685.487,1.011,1.011,0,0,0,.823-.14,1.012,1.012,0,0,0,.533-.642A1.475,1.475,0,0,0,12.25.34Q12.191.18,12.11,0h1.328a3.43,3.43,0,0,1,.155,1.111,2.083,2.083,0,0,1-1.2,1.744,2.519,2.519,0,0,1-1.254.381A1.813,1.813,0,0,1,10.285,3.021ZM28.379,0h1.53L30.8,1.544l-1.148.663ZM46.666,0H48.2l.664,1.15-1.148.663ZM82.827,1.152A3.911,3.911,0,0,1,81.555,0H83.3a1.232,1.232,0,0,0,.213.09A.96.96,0,0,0,84.245,0h1.7a2.444,2.444,0,0,1-1.006.986,2.518,2.518,0,0,1-1.254.381A1.814,1.814,0,0,1,82.827,1.152ZM15.422,0h1.531l.106.184L15.911.846ZM66.538.331a3.055,3.055,0,0,1-.5-.331h2.87q-.122.086-.261.166a2.518,2.518,0,0,1-1.254.381A1.814,1.814,0,0,1,66.538.331ZM50.342,0h.509L50.47.221ZM32.056,0H33.3a2.124,2.124,0,0,1-.642.105A1.784,1.784,0,0,1,32.056,0Z" transform="translate(-356.992 -83.529)" fill="#022c64" stroke="rgba(0,0,0,0)" stroke-width="1"/>
    </g>
    <g id="DMP_LOGO_copie" data-name="DMP LOGO copie" transform="translate(-232.439 765.38)">
      <g id="Group_270" data-name="Group 270" transform="translate(339.7 226.102)">
        <path id="Path_465" data-name="Path 465" d="M339.7,474.9h2.671a3.17,3.17,0,1,1,0,6.322H339.7Zm2.62,5.544a2.39,2.39,0,1,0,0-4.767h-1.707v4.767Z" transform="translate(-339.7 -474.393)" fill="#1b478e"/>
        <path id="Path_466" data-name="Path 466" d="M382.3,472.475a.574.574,0,0,1,.592-.575.567.567,0,1,1,0,1.133A.571.571,0,0,1,382.3,472.475Zm.152,1.471h.862v4.8h-.862Z" transform="translate(-375.099 -471.9)" fill="#1b478e"/>
        <path id="Path_467" data-name="Path 467" d="M400.769,483.8v.845a.823.823,0,0,0-.2-.017,1.431,1.431,0,0,0-1.5,1.623v2.383H398.2v-4.8h.828v.811A1.817,1.817,0,0,1,400.769,483.8Z" transform="translate(-388.311 -481.788)" fill="#1b478e"/>
        <path id="Path_468" data-name="Path 468" d="M421.567,486.438h-3.888a1.623,1.623,0,0,0,1.741,1.4,1.8,1.8,0,0,0,1.386-.575l.473.558a2.621,2.621,0,0,1-4.48-1.674,2.349,2.349,0,0,1,2.4-2.451,2.309,2.309,0,0,1,2.367,2.468A1.445,1.445,0,0,1,421.567,486.438Zm-3.888-.625h3.077a1.549,1.549,0,0,0-3.077,0Z" transform="translate(-403.767 -481.705)" fill="#1b478e"/>
        <path id="Path_469" data-name="Path 469" d="M449.6,486.151a2.4,2.4,0,0,1,2.536-2.451,2.171,2.171,0,0,1,1.961,1.014l-.659.423a1.489,1.489,0,0,0-1.3-.693,1.691,1.691,0,0,0,0,3.381,1.489,1.489,0,0,0,1.3-.693l.659.423a2.131,2.131,0,0,1-1.961,1.031A2.38,2.38,0,0,1,449.6,486.151Z" transform="translate(-431.023 -481.705)" fill="#1b478e"/>
        <path id="Path_470" data-name="Path 470" d="M482.481,483.361a1.691,1.691,0,0,1-1.048.338,1.375,1.375,0,0,1-1.521-1.5v-2.637H479.1v-.71h.811V477.8h.862v1.048h1.369v.71h-1.369v2.6c0,.524.27.811.744.811a1.154,1.154,0,0,0,.676-.22Z" transform="translate(-455.536 -476.803)" fill="#1b478e"/>
        <path id="Path_471" data-name="Path 471" d="M504.4,472.475a.574.574,0,0,1,.592-.575.567.567,0,1,1,0,1.133A.571.571,0,0,1,504.4,472.475Zm.152,1.471h.862v4.8h-.862Z" transform="translate(-476.559 -471.9)" fill="#1b478e"/>
        <path id="Path_472" data-name="Path 472" d="M517.6,486.151a2.494,2.494,0,1,1,2.5,2.451A2.393,2.393,0,0,1,517.6,486.151Zm4.108,0a1.616,1.616,0,1,0-1.606,1.69A1.568,1.568,0,0,0,521.708,486.151Z" transform="translate(-487.528 -481.705)" fill="#1b478e"/>
        <path id="Path_473" data-name="Path 473" d="M558.764,485.879v2.755h-.879v-2.654c0-.947-.473-1.4-1.3-1.4a1.424,1.424,0,0,0-1.521,1.589v2.468H554.2v-4.8h.828v.727a2.04,2.04,0,0,1,1.724-.761A1.86,1.86,0,0,1,558.764,485.879Z" transform="translate(-517.941 -481.788)" fill="#1b478e"/>
        <path id="Path_474" data-name="Path 474" d="M607.553,472.617v6.711h-.828v-.761a2.018,2.018,0,0,1-1.707.811,2.451,2.451,0,0,1,0-4.9,2.071,2.071,0,0,1,1.674.761V472.6h.862Zm-.862,4.311a1.616,1.616,0,1,0-1.606,1.69A1.586,1.586,0,0,0,606.691,476.927Z" transform="translate(-558.16 -472.482)" fill="#1b478e"/>
        <path id="Path_475" data-name="Path 475" d="M643.767,486.438h-3.888a1.623,1.623,0,0,0,1.741,1.4,1.8,1.8,0,0,0,1.386-.575l.473.558A2.621,2.621,0,0,1,639,486.151a2.349,2.349,0,0,1,2.4-2.451,2.309,2.309,0,0,1,2.367,2.468A1.445,1.445,0,0,1,643.767,486.438Zm-3.9-.625h3.076a1.48,1.48,0,0,0-1.538-1.369A1.5,1.5,0,0,0,639.862,485.813Z" transform="translate(-588.406 -481.705)" fill="#1b478e"/>
        <path id="Path_476" data-name="Path 476" d="M670.8,487.961l.355-.693a3.116,3.116,0,0,0,1.69.49c.811,0,1.133-.237,1.133-.659,0-1.082-3.026-.152-3.026-2.062,0-.862.761-1.437,1.995-1.437a3.448,3.448,0,0,1,1.741.44l-.372.693a2.45,2.45,0,0,0-1.386-.372c-.761,0-1.133.287-1.133.659,0,1.133,3.043.2,3.043,2.079,0,.862-.794,1.42-2.079,1.42A3.379,3.379,0,0,1,670.8,487.961Z" transform="translate(-614.831 -481.622)" fill="#1b478e"/>
        <path id="Path_477" data-name="Path 477" d="M722.266,481.156l-.017-4.615-2.282,3.837h-.423l-2.282-3.82v4.581H716.4V474.8h.744l2.637,4.446,2.6-4.446h.744l.017,6.339h-.879Z" transform="translate(-652.723 -474.31)" fill="#1b478e"/>
        <path id="Path_478" data-name="Path 478" d="M768.867,477.464h-3.888a1.623,1.623,0,0,0,1.741,1.4,1.8,1.8,0,0,0,1.386-.575l.473.558a2.621,2.621,0,0,1-4.479-1.673,2.349,2.349,0,0,1,2.4-2.451,2.309,2.309,0,0,1,2.367,2.468A1.435,1.435,0,0,1,768.867,477.464Zm-3.9-.625h3.076a1.48,1.48,0,0,0-1.538-1.369A1.5,1.5,0,0,0,764.962,476.839Zm1.674-2.755h-.811l1.234-1.183h1.1Z" transform="translate(-692.36 -472.731)" fill="#1b478e"/>
        <path id="Path_479" data-name="Path 479" d="M801.953,472.617v6.711h-.828v-.761a2.018,2.018,0,0,1-1.707.811,2.451,2.451,0,0,1,0-4.9,2.071,2.071,0,0,1,1.674.761V472.6h.862Zm-.862,4.311a1.616,1.616,0,1,0-1.606,1.69A1.586,1.586,0,0,0,801.091,476.927Z" transform="translate(-719.698 -472.482)" fill="#1b478e"/>
        <path id="Path_480" data-name="Path 480" d="M835.1,472.475a.574.574,0,0,1,.592-.575.567.567,0,1,1,0,1.133A.571.571,0,0,1,835.1,472.475Zm.152,1.471h.862v4.8h-.862Z" transform="translate(-751.358 -471.9)" fill="#1b478e"/>
        <path id="Path_481" data-name="Path 481" d="M848.3,486.151a2.4,2.4,0,0,1,2.536-2.451,2.171,2.171,0,0,1,1.961,1.014l-.659.423a1.488,1.488,0,0,0-1.3-.693,1.691,1.691,0,0,0,0,3.381,1.488,1.488,0,0,0,1.3-.693l.659.423a2.131,2.131,0,0,1-1.961,1.031A2.38,2.38,0,0,1,848.3,486.151Z" transform="translate(-762.326 -481.705)" fill="#1b478e"/>
        <path id="Path_482" data-name="Path 482" d="M883.475,485.744v2.891h-.828v-.625a1.772,1.772,0,0,1-1.572.693c-1.082,0-1.775-.575-1.775-1.42,0-.761.49-1.4,1.927-1.4H882.6v-.169c0-.727-.423-1.166-1.285-1.166a2.4,2.4,0,0,0-1.521.524l-.355-.659a3.134,3.134,0,0,1,1.978-.609C882.732,483.8,883.475,484.425,883.475,485.744Zm-.879,1.42v-.676h-1.335c-.862,0-1.1.338-1.1.744,0,.473.406.778,1.065.778A1.333,1.333,0,0,0,882.6,487.164Z" transform="translate(-788.086 -481.788)" fill="#1b478e"/>
        <path id="Path_483" data-name="Path 483" d="M921.628,485.8v2.755h-.862V485.9c0-.947-.456-1.4-1.234-1.4a1.4,1.4,0,0,0-1.437,1.589v2.468h-.862V485.9c0-.947-.456-1.4-1.234-1.4a1.4,1.4,0,0,0-1.437,1.589v2.468H913.7v-4.8h.828v.71a1.93,1.93,0,0,1,1.657-.761,1.76,1.76,0,0,1,1.657.879,2.15,2.15,0,0,1,1.843-.879A1.849,1.849,0,0,1,921.628,485.8Z" transform="translate(-816.671 -481.705)" fill="#1b478e"/>
        <path id="Path_484" data-name="Path 484" d="M972.367,486.438h-3.888a1.623,1.623,0,0,0,1.741,1.4,1.8,1.8,0,0,0,1.386-.575l.473.558a2.622,2.622,0,0,1-4.48-1.674A2.349,2.349,0,0,1,970,483.7a2.309,2.309,0,0,1,2.367,2.468A1.445,1.445,0,0,1,972.367,486.438Zm-3.888-.625h3.077a1.549,1.549,0,0,0-3.077,0Z" transform="translate(-861.46 -481.705)" fill="#1b478e"/>
        <path id="Path_485" data-name="Path 485" d="M1007.547,485.879v2.755h-.862v-2.654c0-.947-.473-1.4-1.3-1.4a1.424,1.424,0,0,0-1.521,1.589v2.468H1003v-4.8h.828v.727a2.04,2.04,0,0,1,1.724-.761A1.848,1.848,0,0,1,1007.547,485.879Z" transform="translate(-890.876 -481.788)" fill="#1b478e"/>
        <path id="Path_486" data-name="Path 486" d="M1038.781,483.361a1.691,1.691,0,0,1-1.048.338,1.375,1.375,0,0,1-1.521-1.5v-2.637h-.811v-.71h.811V477.8h.862v1.048h1.369v.71h-1.369v2.6c0,.524.271.811.744.811a1.154,1.154,0,0,0,.676-.22Z" transform="translate(-917.799 -476.803)" fill="#1b478e"/>
        <path id="Path_487" data-name="Path 487" d="M1058.1,487.961l.355-.693a3.116,3.116,0,0,0,1.69.49c.811,0,1.132-.237,1.132-.659,0-1.082-3.026-.152-3.026-2.062,0-.862.761-1.437,1.995-1.437a3.449,3.449,0,0,1,1.741.44l-.372.693a2.45,2.45,0,0,0-1.386-.372c-.761,0-1.133.287-1.133.659,0,1.133,3.043.2,3.043,2.079,0,.862-.794,1.42-2.079,1.42A3.378,3.378,0,0,1,1058.1,487.961Z" transform="translate(-936.662 -481.622)" fill="#1b478e"/>
        <path id="Path_488" data-name="Path 488" d="M460.767,550.738h-3.888a1.623,1.623,0,0,0,1.741,1.4,1.8,1.8,0,0,0,1.386-.575l.473.558a2.622,2.622,0,0,1-4.48-1.674A2.349,2.349,0,0,1,458.4,548a2.309,2.309,0,0,1,2.367,2.468A.726.726,0,0,1,460.767,550.738Zm-3.888-.625h3.076a1.549,1.549,0,0,0-3.076,0Z" transform="translate(-436.341 -535.136)" fill="#1b478e"/>
        <path id="Path_489" data-name="Path 489" d="M490.781,547.661a1.692,1.692,0,0,1-1.048.338,1.375,1.375,0,0,1-1.521-1.5v-2.637H487.4v-.71h.811V542.1h.862v1.048h1.369v.71h-1.369v2.6c0,.524.271.811.744.811a1.155,1.155,0,0,0,.676-.22Z" transform="translate(-462.433 -530.233)" fill="#1b478e"/>
        <path id="Path_490" data-name="Path 490" d="M530.453,536.817v6.711h-.828v-.761a2.018,2.018,0,0,1-1.707.811,2.451,2.451,0,0,1,0-4.9,2.071,2.071,0,0,1,1.673.761V536.8h.862Zm-.862,4.327a1.616,1.616,0,1,0-1.606,1.69A1.586,1.586,0,0,0,529.591,541.144Z" transform="translate(-494.092 -525.829)" fill="#1b478e"/>
        <path id="Path_491" data-name="Path 491" d="M566.667,550.738h-3.888a1.623,1.623,0,0,0,1.741,1.4,1.8,1.8,0,0,0,1.386-.575l.473.558a2.622,2.622,0,0,1-4.48-1.674A2.349,2.349,0,0,1,564.3,548a2.309,2.309,0,0,1,2.367,2.468A1.447,1.447,0,0,1,566.667,550.738Zm-3.9-.625h3.077a1.549,1.549,0,0,0-3.077,0Z" transform="translate(-524.339 -535.136)" fill="#1b478e"/>
        <path id="Path_492" data-name="Path 492" d="M611.7,536.9h.862v6.711H611.7Z" transform="translate(-565.721 -525.912)" fill="#1b478e"/>
        <path id="Path_493" data-name="Path 493" d="M628.575,549.944v2.891h-.828v-.625a1.772,1.772,0,0,1-1.572.693c-1.082,0-1.775-.575-1.775-1.42,0-.761.49-1.4,1.927-1.4H627.7v-.169c0-.727-.423-1.166-1.285-1.166a2.4,2.4,0,0,0-1.521.524l-.355-.659a3.135,3.135,0,0,1,1.978-.609C627.831,548,628.575,548.642,628.575,549.944Zm-.862,1.437V550.7h-1.352c-.862,0-1.1.338-1.1.744,0,.473.406.778,1.065.778A1.415,1.415,0,0,0,627.713,551.381Z" transform="translate(-576.274 -535.136)" fill="#1b478e"/>
        <path id="Path_494" data-name="Path 494" d="M678.822,541.314c0,1.369-1,2.214-2.637,2.214h-1.572v1.91H673.7V539.1h2.468C677.825,539.117,678.822,539.945,678.822,541.314Zm-.9,0c0-.913-.609-1.42-1.758-1.42H674.63v2.84h1.538C677.317,542.734,677.926,542.227,677.926,541.314Z" transform="translate(-617.241 -527.741)" fill="#1b478e"/>
        <path id="Path_495" data-name="Path 495" d="M716.247,540.856v2.755h-.862v-2.654c0-.947-.473-1.4-1.3-1.4a1.424,1.424,0,0,0-1.521,1.589v2.468H711.7V536.9h.862v2.6a2.092,2.092,0,0,1,1.69-.727A1.864,1.864,0,0,1,716.247,540.856Z" transform="translate(-648.817 -525.912)" fill="#1b478e"/>
        <path id="Path_496" data-name="Path 496" d="M750.075,549.944v2.891h-.828v-.625a1.772,1.772,0,0,1-1.572.693c-1.082,0-1.775-.575-1.775-1.42,0-.761.49-1.4,1.927-1.4H749.2v-.169c0-.727-.423-1.166-1.285-1.166a2.4,2.4,0,0,0-1.521.524l-.355-.659a3.135,3.135,0,0,1,1.978-.609C749.331,548,750.075,548.642,750.075,549.944Zm-.862,1.437V550.7h-1.335c-.862,0-1.1.338-1.1.744,0,.473.406.778,1.065.778A1.391,1.391,0,0,0,749.213,551.381Z" transform="translate(-677.236 -535.136)" fill="#1b478e"/>
        <path id="Path_497" data-name="Path 497" d="M782.769,548v.845a.823.823,0,0,0-.2-.017,1.431,1.431,0,0,0-1.5,1.623v2.383H780.2v-4.8h.828v.811A1.817,1.817,0,0,1,782.769,548Z" transform="translate(-705.738 -535.136)" fill="#1b478e"/>
        <path id="Path_498" data-name="Path 498" d="M809.828,550v2.755h-.862V550.1c0-.947-.456-1.4-1.234-1.4a1.4,1.4,0,0,0-1.437,1.589v2.468h-.862V550.1c0-.947-.456-1.4-1.234-1.4a1.4,1.4,0,0,0-1.437,1.589v2.468H801.9v-4.8h.828v.71a1.931,1.931,0,0,1,1.657-.761,1.759,1.759,0,0,1,1.657.879,2.149,2.149,0,0,1,1.843-.879A1.857,1.857,0,0,1,809.828,550Z" transform="translate(-723.77 -535.053)" fill="#1b478e"/>
        <path id="Path_499" data-name="Path 499" d="M860.275,549.944v2.891h-.828v-.625a1.772,1.772,0,0,1-1.572.693c-1.082,0-1.775-.575-1.775-1.42,0-.761.49-1.4,1.927-1.4H859.4v-.169c0-.727-.423-1.166-1.285-1.166a2.4,2.4,0,0,0-1.521.524l-.355-.659a3.135,3.135,0,0,1,1.978-.609C859.531,548,860.275,548.642,860.275,549.944Zm-.862,1.437V550.7h-1.335c-.862,0-1.1.338-1.1.744,0,.473.406.778,1.065.778A1.407,1.407,0,0,0,859.413,551.381Z" transform="translate(-768.808 -535.136)" fill="#1b478e"/>
        <path id="Path_500" data-name="Path 500" d="M887.9,550.451A2.4,2.4,0,0,1,890.436,548a2.171,2.171,0,0,1,1.961,1.014l-.659.423a1.488,1.488,0,0,0-1.3-.693,1.691,1.691,0,0,0,0,3.381,1.489,1.489,0,0,0,1.3-.693l.659.423a2.132,2.132,0,0,1-1.961,1.031A2.38,2.38,0,0,1,887.9,550.451Z" transform="translate(-795.233 -535.136)" fill="#1b478e"/>
        <path id="Path_501" data-name="Path 501" d="M920.1,536.675a.574.574,0,0,1,.592-.575.567.567,0,1,1-.592.575Zm.169,1.488h.862v4.8h-.862Z" transform="translate(-821.989 -525.248)" fill="#1b478e"/>
        <path id="Path_502" data-name="Path 502" d="M938.067,550.738h-3.888a1.623,1.623,0,0,0,1.741,1.4,1.8,1.8,0,0,0,1.386-.575l.473.558a2.622,2.622,0,0,1-4.48-1.674A2.349,2.349,0,0,1,935.7,548a2.309,2.309,0,0,1,2.367,2.468A.728.728,0,0,1,938.067,550.738Zm-3.888-.625h3.077a1.549,1.549,0,0,0-3.077,0Z" transform="translate(-832.958 -535.136)" fill="#1b478e"/>
      </g>
      <g id="Group_271" data-name="Group 271" transform="translate(354.302 176.1)">
        <path id="Path_503" data-name="Path 503" d="M818.714,214.268h-5.477V198.7H829.8a7.868,7.868,0,0,0,6-2.637,8.24,8.24,0,0,0,1.91-5.359,8,8,0,0,0-1.978-5.612,9.874,9.874,0,0,0-7.641-3.415H813V176.2h15.129a15.36,15.36,0,0,1,11.816,5.375,14.218,14.218,0,0,1,.034,18.087,13.362,13.362,0,0,1-10.142,4.53H818.747v10.075Z" transform="translate(-747.596 -176.183)" fill="#022c64"/>
        <path id="Path_504" data-name="Path 504" d="M829.431,247.077H813V241.6h16.431a2.749,2.749,0,0,1,2.739,2.738h0A2.738,2.738,0,0,1,829.431,247.077Z" transform="translate(-747.596 -230.528)" fill="#00a7a5"/>
        <path id="Path_505" data-name="Path 505" d="M456.293,214.185H441.164a15.36,15.36,0,0,1-11.816-5.375,14.218,14.218,0,0,1-.034-18.087,13.362,13.362,0,0,1,10.142-4.53h11.089V176.1h5.477v15.569H439.457a7.868,7.868,0,0,0-6,2.637,8.241,8.241,0,0,0-1.91,5.359,8,8,0,0,0,1.978,5.612,9.874,9.874,0,0,0,7.641,3.415h15.129Z" transform="translate(-426.083 -176.1)" fill="#022c64"/>
        <path id="Path_506" data-name="Path 506" d="M510.569,309.177H494.138a2.749,2.749,0,0,1-2.738-2.738h0a2.749,2.749,0,0,1,2.738-2.738h16.431Z" transform="translate(-480.359 -282.131)" fill="#00a7a5"/>
        <path id="Path_507" data-name="Path 507" d="M657.617,176.3l-13.033,8.384-13.05-8.384H631.5v38.068h5.477V186.527l7.607,4.53,7.59-4.53v27.841h5.477V176.3Z" transform="translate(-596.776 -176.266)" fill="#022c64"/>
      </g>
    </g>
  </g>
</svg>
