<svg xmlns="http://www.w3.org/2000/svg" width="22.151" height="18.124" viewBox="0 0 22.151 18.124">
  <g id="dashboard" transform="translate(-1 -3)">
    <path id="Path_569" data-name="Path 569" d="M20.131,3H4.021A3.021,3.021,0,0,0,1,6.021V18.1a3.021,3.021,0,0,0,3.021,3.021h16.11A3.021,3.021,0,0,0,23.151,18.1V6.021A3.021,3.021,0,0,0,20.131,3Zm1.007,15.1a1.007,1.007,0,0,1-1.007,1.007H4.021A1.007,1.007,0,0,1,3.014,18.1V6.021A1.007,1.007,0,0,1,4.021,5.014h16.11a1.007,1.007,0,0,1,1.007,1.007Z" transform="translate(0 0)" fill="#1b478e"/>
    <path id="Path_570" data-name="Path 570" d="M8.007,11A1.007,1.007,0,0,0,7,12.007v4.028a1.007,1.007,0,1,0,2.014,0V12.007A1.007,1.007,0,0,0,8.007,11Z" transform="translate(0.041 0.055)" fill="#1b478e"/>
    <path id="Path_571" data-name="Path 571" d="M12.007,9A1.007,1.007,0,0,0,11,10.007v6.041a1.007,1.007,0,0,0,2.014,0V10.007A1.007,1.007,0,0,0,12.007,9Z" transform="translate(0.069 0.041)" fill="#1b478e"/>
    <path id="Path_572" data-name="Path 572" d="M16.007,7A1.007,1.007,0,0,0,15,8.007v8.055a1.007,1.007,0,1,0,2.014,0V8.007A1.007,1.007,0,0,0,16.007,7Z" transform="translate(0.096 0.028)" fill="#1b478e"/>
  </g>
</svg>
