<svg xmlns="http://www.w3.org/2000/svg" width="27.805" height="23.453" viewBox="0 0 27.805 23.453">
  <g id="folders" transform="translate(-0.001 -0.5)">
    <path id="Path_566" data-name="Path 566" d="M26.137,3.451H16.575a.033.033,0,0,1-.03-.018l-.986-2A1.679,1.679,0,0,0,14.061.5H8.28A1.671,1.671,0,0,0,6.611,2.169V3.806H4.975A1.671,1.671,0,0,0,3.306,5.474V7.111H1.67A1.671,1.671,0,0,0,0,8.78v13.5A1.671,1.671,0,0,0,1.67,23.953H19.527A1.671,1.671,0,0,0,21.2,22.284V20.648h1.636A1.671,1.671,0,0,0,24.5,18.979V17.343h1.636a1.671,1.671,0,0,0,1.669-1.669V5.12a1.671,1.671,0,0,0-1.669-1.669Zm-6.61,18.867H1.67a.033.033,0,0,1-.033-.033V8.779a.033.033,0,0,1,.033-.033H7.451a.033.033,0,0,1,.015,0h0l0,.005a.036.036,0,0,1,.008.008l.987,2a1.659,1.659,0,0,0,1.5.931h9.563l.013,0a.033.033,0,0,1,.02.031c0,5.768,0,10.5,0,10.554a.033.033,0,0,1-.033.033Zm3.339-3.338a.033.033,0,0,1-.033.033H21.2V11.73a1.671,1.671,0,0,0-1.669-1.669H9.964a.034.034,0,0,1-.03-.019l-.987-2a1.659,1.659,0,0,0-1.5-.931H4.941V5.474a.033.033,0,0,1,.033-.033h5.781a.033.033,0,0,1,.03.019l.987,2a1.659,1.659,0,0,0,1.5.931h9.563a.033.033,0,0,1,.033.033Zm3.305-3.305a.033.033,0,0,1-.033.033H24.5V8.425a1.671,1.671,0,0,0-1.669-1.669H13.269a.034.034,0,0,1-.03-.019l-.987-2a1.658,1.658,0,0,0-1.5-.931H8.247V2.169a.033.033,0,0,1,.033-.034h5.781a.033.033,0,0,1,.03.019l.987,2a1.659,1.659,0,0,0,1.5.93h9.562a.033.033,0,0,1,.033.034V15.674Zm0,0" transform="translate(0 0)" fill="#fff"/>
    <path id="Path_567" data-name="Path 567" d="M253.361,336.766a.818.818,0,0,0-.818.818v.473a.818.818,0,1,0,1.636,0v-.473A.818.818,0,0,0,253.361,336.766Zm0,0" transform="translate(-238.828 -318.004)" fill="#fff"/>
    <path id="Path_568" data-name="Path 568" d="M297.243,336.766a.818.818,0,0,0-.818.818v.473a.818.818,0,1,0,1.635,0v-.473A.818.818,0,0,0,297.243,336.766Zm0,0" transform="translate(-280.327 -318.004)" fill="#fff"/>
  </g>
</svg>
