<svg xmlns="http://www.w3.org/2000/svg" width="25.341" height="21.374" viewBox="0 0 25.341 21.374">
  <g id="folders" transform="translate(-0.001 -0.5)">
    <path id="Path_566" data-name="Path 566" d="M23.821,3.189H15.106a.03.03,0,0,1-.028-.017l-.9-1.823A1.53,1.53,0,0,0,12.815.5H7.546A1.523,1.523,0,0,0,6.025,2.021V3.513H4.534A1.523,1.523,0,0,0,3.013,5.033V6.525H1.522A1.523,1.523,0,0,0,0,8.046V20.353a1.523,1.523,0,0,0,1.521,1.521H17.8a1.523,1.523,0,0,0,1.521-1.521V18.862h1.491a1.523,1.523,0,0,0,1.521-1.521V15.85h1.491a1.523,1.523,0,0,0,1.521-1.521V4.71a1.523,1.523,0,0,0-1.521-1.521ZM17.8,20.384H1.522a.03.03,0,0,1-.03-.03V8.046a.03.03,0,0,1,.03-.03H6.79a.03.03,0,0,1,.014,0h0l0,0a.033.033,0,0,1,.007.008l.9,1.824a1.512,1.512,0,0,0,1.364.848H17.8l.012,0a.03.03,0,0,1,.018.028c0,5.256,0,9.571,0,9.619a.03.03,0,0,1-.03.03Zm3.043-3.043a.03.03,0,0,1-.03.03H19.317V10.735A1.523,1.523,0,0,0,17.8,9.214H9.081A.031.031,0,0,1,9.054,9.2l-.9-1.824a1.512,1.512,0,0,0-1.364-.848H4.5V5.033A.03.03,0,0,1,4.534,5H9.8a.03.03,0,0,1,.027.017l.9,1.824a1.512,1.512,0,0,0,1.364.848h8.715a.03.03,0,0,1,.03.03Zm3.012-3.012a.03.03,0,0,1-.03.03H22.329V7.723A1.522,1.522,0,0,0,20.809,6.2H12.093a.031.031,0,0,1-.027-.017l-.9-1.823A1.511,1.511,0,0,0,9.8,3.512H7.516V2.021a.03.03,0,0,1,.03-.031h5.268a.03.03,0,0,1,.027.017l.9,1.824a1.512,1.512,0,0,0,1.365.848h8.715a.03.03,0,0,1,.03.031v9.618Zm0,0" transform="translate(0 0)" fill="#fff"/>
    <path id="Path_567" data-name="Path 567" d="M253.289,336.766a.745.745,0,0,0-.745.745v.431a.745.745,0,1,0,1.491,0v-.431A.745.745,0,0,0,253.289,336.766Zm0,0" transform="translate(-240.043 -319.623)" fill="#fff"/>
    <path id="Path_568" data-name="Path 568" d="M297.171,336.766a.745.745,0,0,0-.745.745v.431a.745.745,0,1,0,1.491,0v-.431A.745.745,0,0,0,297.171,336.766Zm0,0" transform="translate(-281.754 -319.623)" fill="#fff"/>
  </g>
</svg>
