<svg xmlns="http://www.w3.org/2000/svg" width="22.5" height="22.5" viewBox="0 0 22.5 22.5">
  <g id="form" transform="translate(0)">
    <g id="Group_513" data-name="Group 513" transform="translate(0)">
      <path id="Path_580" data-name="Path 580" d="M14.722,1.318H13.07A1.981,1.981,0,0,0,11.206,0H5.933A1.981,1.981,0,0,0,4.068,1.318H2.417A2.42,2.42,0,0,0,0,3.735V20.083A2.42,2.42,0,0,0,2.417,22.5h12.3a2.42,2.42,0,0,0,2.417-2.417V3.735A2.42,2.42,0,0,0,14.722,1.318Zm-8.789,0h5.273a.659.659,0,1,1,0,1.318H5.933a.659.659,0,0,1,0-1.318Zm4.614,2.637v.659a.66.66,0,0,1-.659.659H7.251a.66.66,0,0,1-.659-.659V3.955ZM15.82,20.083a1.1,1.1,0,0,1-1.1,1.1H2.417a1.1,1.1,0,0,1-1.1-1.1V3.735a1.1,1.1,0,0,1,1.1-1.1H4.068a1.987,1.987,0,0,0,1.2,1.2v.773A1.98,1.98,0,0,0,7.251,6.592H9.888a1.98,1.98,0,0,0,1.978-1.978V3.842a1.987,1.987,0,0,0,1.2-1.2h1.651a1.1,1.1,0,0,1,1.1,1.1Z" transform="translate(0)" fill="#1b478e"/>
      <path id="Path_581" data-name="Path 581" d="M61.978,180H60.659a.659.659,0,1,0,0,1.318h1.318a.659.659,0,1,0,0-1.318Z" transform="translate(-57.363 -172.09)" fill="#1b478e"/>
      <path id="Path_582" data-name="Path 582" d="M61.978,240H60.659a.659.659,0,1,0,0,1.318h1.318a.659.659,0,1,0,0-1.318Z" transform="translate(-57.363 -229.453)" fill="#1b478e"/>
      <path id="Path_583" data-name="Path 583" d="M61.978,300H60.659a.659.659,0,0,0,0,1.318h1.318a.659.659,0,0,0,0-1.318Z" transform="translate(-57.363 -286.816)" fill="#1b478e"/>
      <path id="Path_584" data-name="Path 584" d="M61.978,360H60.659a.659.659,0,0,0,0,1.318h1.318a.659.659,0,0,0,0-1.318Z" transform="translate(-57.363 -344.18)" fill="#1b478e"/>
      <path id="Path_585" data-name="Path 585" d="M157.251,180h-6.592a.659.659,0,1,0,0,1.318h6.592a.659.659,0,0,0,0-1.318Z" transform="translate(-143.408 -172.09)" fill="#1b478e"/>
      <path id="Path_586" data-name="Path 586" d="M150.659,241.318h5.273a.659.659,0,0,0,0-1.318h-5.273a.659.659,0,1,0,0,1.318Z" transform="translate(-143.408 -229.453)" fill="#1b478e"/>
      <path id="Path_587" data-name="Path 587" d="M157.251,300h-6.592a.659.659,0,0,0,0,1.318h6.592a.659.659,0,0,0,0-1.318Z" transform="translate(-143.408 -286.816)" fill="#1b478e"/>
      <path id="Path_588" data-name="Path 588" d="M155.713,360.659a.659.659,0,0,0-.659-.659h-4.395a.659.659,0,0,0,0,1.318h4.395A.659.659,0,0,0,155.713,360.659Z" transform="translate(-143.408 -344.18)" fill="#1b478e"/>
      <path id="Path_589" data-name="Path 589" d="M243.3,420h-2.637a.659.659,0,1,0,0,1.318H243.3a.659.659,0,0,0,0-1.318Z" transform="translate(-229.453 -401.543)" fill="#1b478e"/>
      <path id="Path_590" data-name="Path 590" d="M423.978,42A1.98,1.98,0,0,0,422,43.978v14.5a.659.659,0,0,0,.042.231l1.318,3.516a.659.659,0,0,0,1.234,0l1.318-3.516a.659.659,0,0,0,.042-.231v-14.5A1.98,1.98,0,0,0,423.978,42Zm0,18.118-.367-.979h.734Zm.659-2.3h-1.318V47.713h1.318Zm0-11.426h-1.318V43.978a.659.659,0,0,1,1.318,0Z" transform="translate(-403.455 -40.154)" fill="#1b478e"/>
    </g>
  </g>
</svg>
