<svg xmlns="http://www.w3.org/2000/svg" xmlns:xlink="http://www.w3.org/1999/xlink" width="232" height="120.112" viewBox="0 0 232 120.112">
  <defs>
    <clipPath id="clip-path">
      <rect id="Rectangle_181" data-name="Rectangle 181" width="232" height="49" transform="translate(-0.177 -0.075)" fill="#022c64" stroke="#707070" stroke-width="1"/>
    </clipPath>
    <clipPath id="clip-path-2">
      <rect id="Rectangle_179" data-name="Rectangle 179" width="96.97" height="24.244" fill="#022c64"/>
    </clipPath>
    <clipPath id="clip-path-3">
      <rect id="Rectangle_180" data-name="Rectangle 180" width="100.081" height="58.1" fill="#022c64"/>
    </clipPath>
  </defs>
  <g id="Group_512" data-name="Group 512" transform="translate(422.177 161.075)">
    <path id="Path_555" data-name="Path 555" d="M-316.731-56.807c-.627,1.153-1.88,1.755-3.66,1.755-3.009,0-4.312-1.956-4.312-3.234v-.05h12.937v-.4c0-5.064-2.808-8-8.624-8-5.315,0-8.875,2.156-8.875,7.22s3.56,7.22,8.875,7.22c4.036,0,7.1-1.329,8.374-4.513Zm-7.973-4.137v-.05c0-.326.727-2.983,4.212-2.983,3.234,0,4.162,2.256,4.162,2.983v.05Zm16.221,2.683h8.95v-3.41h-8.95Zm30.687-7.245c-.326-5.064-5.791-5.691-9.477-5.691-5.616,0-8.875,1.63-8.875,5.616,0,3.66,3.009,4.588,6.117,5.064l4.438.677c1.93.3,3.034.677,3.034,2.056,0,1.554-1.554,2.231-3.836,2.231-2.106,0-4.563-.426-4.613-2.883h-5.465c.05,5.591,5.716,6.142,10.078,6.142,7.045,0,9.3-2.683,9.3-6.017,0-3.259-2.482-4.488-5.741-5.014l-6.092-.978c-1.254-.2-2.056-.727-2.056-1.68,0-1.2,1.3-2.106,3.309-2.106,1.956,0,4.187.251,4.488,2.582Zm15.494,8.7c-.627,1.153-1.88,1.755-3.66,1.755-3.008,0-4.312-1.956-4.312-3.234v-.05h12.937v-.4c0-5.064-2.808-8-8.624-8-5.315,0-8.875,2.156-8.875,7.22s3.56,7.22,8.875,7.22c4.036,0,7.1-1.329,8.374-4.513Zm-7.973-4.137v-.05c0-.326.727-2.983,4.212-2.983,3.234,0,4.162,2.256,4.162,2.983v.05ZM-254.1-52.8h4.412v-5.791c0-2.607,1.429-4.137,4.438-4.137a8.974,8.974,0,0,1,2.432.4V-66.46a8.654,8.654,0,0,0-1.6-.125c-2.507,0-3.761.928-5.365,2.983h-.05v-2.632H-254.1Zm18.352,0h5.014l6.167-13.438h-5.014l-3.66,9.427-3.66-9.427h-5.014Zm13.363,0h4.412V-66.234h-4.412Zm0-15.093h4.412V-71h-4.412Zm24.87,6.619c-.827-4.438-4.814-5.465-8.223-5.465-5.315,0-8.875,2.156-8.875,7.22s3.435,7.22,8.5,7.22c4.387,0,7.8-1.078,8.6-5.842h-4.563c-.226,1.68-1.7,2.733-3.66,2.733-2.733,0-4.312-1.479-4.312-4.112s1.579-4.112,4.312-4.112c1.78,0,3.134.577,3.66,2.357Zm14.867,4.463c-.627,1.153-1.88,1.755-3.66,1.755-3.008,0-4.312-1.956-4.312-3.234v-.05h12.937v-.4c0-5.064-2.808-8-8.624-8-5.315,0-8.875,2.156-8.875,7.22s3.56,7.22,8.875,7.22c4.036,0,7.1-1.329,8.374-4.513Zm-7.973-4.137v-.05c0-.326.727-2.983,4.212-2.983,3.234,0,4.162,2.256,4.162,2.983v.05Zm15.394,3.986c.226,3.184,2.808,4.663,7.9,4.663,3.836,0,8.3-.552,8.3-4.538,0-2.332-1.454-3.66-5.942-4.137l-3.059-.326c-1.905-.2-2.231-.627-2.231-1.254,0-1.329,1.73-1.429,2.883-1.429,1.279,0,2.733.4,2.983,1.78h4.864c-.3-2.507-1.755-4.538-7.947-4.538-3.66,0-7.346.877-7.346,4.513,0,2.557,1.6,3.435,4.412,3.811l4.011.552c2.131.3,2.507.6,2.507,1.354,0,.978-1.178,1.454-3.184,1.454-2.281,0-3.084-.752-3.284-1.905Z" transform="translate(-68.491 -37.098)" fill="#00a7a5"/>
    <g id="Group_506" data-name="Group 506" transform="translate(-422 -161)">
      <g id="Mask_Group_2" data-name="Mask Group 2" transform="translate(0 0)" clip-path="url(#clip-path)">
        <g id="Group_489" data-name="Group 489" transform="translate(46.496 53.124) rotate(-31)">
          <g id="Group_486" data-name="Group 486" transform="translate(3.111)">
            <g id="Group_485" data-name="Group 485" transform="translate(0 0)" clip-path="url(#clip-path-2)">
              <path id="Path_543" data-name="Path 543" d="M96.965,13.9a5.57,5.57,0,0,0-5.33-5.8c-.142-.006-.285-.007-.428,0H42.152a1.867,1.867,0,0,1-1.536-.606L34.924,1.8l-.052-.051A5.488,5.488,0,0,0,30.5.011H6.238A6.008,6.008,0,0,0,0,5.783l0,.03V24.244H96.965Z" transform="translate(0 0)" fill="#022c64"/>
            </g>
          </g>
          <g id="Group_488" data-name="Group 488" transform="translate(0 27.646)">
            <g id="Group_487" data-name="Group 487" clip-path="url(#clip-path-3)">
              <path id="Path_544" data-name="Path 544" d="M7.144,0H5.29C2.43,0-.364,1.141.039,5.437S5.29,52.512,5.29,52.512C5.894,56.49,7.9,58.1,10.878,58.1H89.645c2.837,0,4.692-1.743,5.134-5.588,0,0,4.961-41.317,5.274-45.92S98.064,0,94.779,0H7.144" transform="translate(0 0)" fill="#022c64"/>
            </g>
          </g>
        </g>
      </g>
    </g>
    <path id="Intersection_4" data-name="Intersection 4" d="M30.6,41.852a4.687,4.687,0,0,1-1.755-1.888,4.621,4.621,0,0,1-.749-2.448,2.092,2.092,0,0,1,1.2-1.736,2.09,2.09,0,0,1,2.1-.174,4.62,4.62,0,0,1,1.746,1.873,4.687,4.687,0,0,1,.758,2.464,2.084,2.084,0,0,1-1.2,1.744,2.518,2.518,0,0,1-1.254.381A1.813,1.813,0,0,1,30.6,41.852Zm-.7-5.036a.989.989,0,0,0-.526.644,1.544,1.544,0,0,0,.077.833,6.327,6.327,0,0,0,.5,1.036,7,7,0,0,0,.659.975,1.473,1.473,0,0,0,.685.487,1.2,1.2,0,0,0,1.355-.782,1.474,1.474,0,0,0-.079-.837,6.961,6.961,0,0,0-.515-1.057,6.326,6.326,0,0,0-.649-.949,1.542,1.542,0,0,0-.683-.483.8.8,0,0,0-.251-.04A1.15,1.15,0,0,0,29.9,36.816Zm3.567-1.921-.773.446L32.1,34.313,34.022,33.2l3.355,5.811-1.148.663Zm4.914,2.466a4.691,4.691,0,0,1-1.754-1.888,4.619,4.619,0,0,1-.749-2.448,2.473,2.473,0,0,1,3.308-1.91,4.621,4.621,0,0,1,1.746,1.873,4.686,4.686,0,0,1,.758,2.463,2.083,2.083,0,0,1-1.2,1.744,2.52,2.52,0,0,1-1.254.381A1.813,1.813,0,0,1,38.382,37.361Zm-.7-5.036a.987.987,0,0,0-.526.644,1.547,1.547,0,0,0,.077.833,6.329,6.329,0,0,0,.5,1.036,6.912,6.912,0,0,0,.659.975,1.47,1.47,0,0,0,.685.487,1.2,1.2,0,0,0,1.355-.783,1.475,1.475,0,0,0-.079-.836,7.009,7.009,0,0,0-.515-1.058,6.35,6.35,0,0,0-.649-.948,1.543,1.543,0,0,0-.682-.483.793.793,0,0,0-.251-.04A1.145,1.145,0,0,0,37.68,32.325ZM41.247,30.4l-.773.446-.594-1.028L41.8,28.712l3.355,5.812-1.148.662Zm-17.786-.28-.773.446-.594-1.028,1.921-1.109,3.355,5.811-1.148.663ZM44,28.811l-.774.447-.594-1.029,1.921-1.109,3.355,5.811-1.148.663Zm-17.786-.28-.773.447-.594-1.028,1.921-1.109,3.355,5.811-1.148.663Zm22.7,2.746a4.687,4.687,0,0,1-1.755-1.888,4.619,4.619,0,0,1-.749-2.448,2.472,2.472,0,0,1,3.308-1.909A4.612,4.612,0,0,1,51.469,26.9a4.687,4.687,0,0,1,.758,2.464,2.085,2.085,0,0,1-1.2,1.744,2.52,2.52,0,0,1-1.254.381A1.812,1.812,0,0,1,48.919,31.278Zm-.7-5.036a.989.989,0,0,0-.526.644,1.544,1.544,0,0,0,.077.833,6.314,6.314,0,0,0,.5,1.036,7,7,0,0,0,.659.975,1.476,1.476,0,0,0,.685.487,1.2,1.2,0,0,0,1.355-.782,1.473,1.473,0,0,0-.079-.837,6.947,6.947,0,0,0-.515-1.058,6.325,6.325,0,0,0-.649-.949,1.545,1.545,0,0,0-.683-.483.793.793,0,0,0-.251-.04A1.146,1.146,0,0,0,48.217,26.241ZM31.133,31a4.686,4.686,0,0,1-1.754-1.888,4.618,4.618,0,0,1-.749-2.448,2.091,2.091,0,0,1,1.2-1.736,2.09,2.09,0,0,1,2.105-.174,4.618,4.618,0,0,1,1.746,1.873,4.69,4.69,0,0,1,.758,2.464,2.083,2.083,0,0,1-1.2,1.744,2.516,2.516,0,0,1-1.254.381A1.816,1.816,0,0,1,31.133,31Zm-.7-5.036a.986.986,0,0,0-.526.644,1.544,1.544,0,0,0,.077.833,6.334,6.334,0,0,0,.5,1.036,6.92,6.92,0,0,0,.659.975,1.471,1.471,0,0,0,.685.487,1.2,1.2,0,0,0,1.355-.782,1.474,1.474,0,0,0-.079-.836,6.99,6.99,0,0,0-.515-1.058,6.347,6.347,0,0,0-.649-.949,1.541,1.541,0,0,0-.682-.483.789.789,0,0,0-.251-.04A1.151,1.151,0,0,0,30.43,25.961Zm21.353-1.641-.773.446-.594-1.028,1.921-1.109,3.355,5.811-1.148.663ZM34,24.04l-.774.446-.594-1.028,1.921-1.109,3.355,5.811-1.148.663ZM19.865,27.278A4.687,4.687,0,0,1,18.11,25.39a4.622,4.622,0,0,1-.749-2.448,2.092,2.092,0,0,1,1.2-1.736,2.089,2.089,0,0,1,2.1-.174A4.615,4.615,0,0,1,22.415,22.9a4.687,4.687,0,0,1,.758,2.464,2.085,2.085,0,0,1-1.2,1.744,2.517,2.517,0,0,1-1.254.381A1.814,1.814,0,0,1,19.865,27.278Zm-.7-5.036a.988.988,0,0,0-.526.644,1.545,1.545,0,0,0,.077.833,6.327,6.327,0,0,0,.5,1.036,7,7,0,0,0,.659.975,1.475,1.475,0,0,0,.685.487,1.2,1.2,0,0,0,1.355-.782,1.473,1.473,0,0,0-.079-.837,6.952,6.952,0,0,0-.515-1.058,6.331,6.331,0,0,0-.649-.949,1.544,1.544,0,0,0-.683-.483.789.789,0,0,0-.251-.04A1.145,1.145,0,0,0,19.163,22.242ZM56.7,26.786A4.685,4.685,0,0,1,54.943,24.9a4.616,4.616,0,0,1-.749-2.448A2.473,2.473,0,0,1,57.5,20.54a4.617,4.617,0,0,1,1.745,1.872,4.688,4.688,0,0,1,.758,2.464,2.083,2.083,0,0,1-1.2,1.744A2.518,2.518,0,0,1,57.554,27,1.815,1.815,0,0,1,56.7,26.786ZM56,21.75a.987.987,0,0,0-.526.644,1.541,1.541,0,0,0,.077.833,6.333,6.333,0,0,0,.5,1.036,6.941,6.941,0,0,0,.659.975,1.471,1.471,0,0,0,.685.487,1.2,1.2,0,0,0,1.355-.782,1.475,1.475,0,0,0-.079-.836,6.991,6.991,0,0,0-.515-1.058A6.294,6.294,0,0,0,57.5,22.1a1.541,1.541,0,0,0-.682-.483.8.8,0,0,0-.251-.04A1.149,1.149,0,0,0,56,21.75ZM38.912,26.506a4.689,4.689,0,0,1-1.755-1.888,4.619,4.619,0,0,1-.749-2.448,2.473,2.473,0,0,1,3.308-1.91,4.625,4.625,0,0,1,1.746,1.873A4.689,4.689,0,0,1,42.22,24.6a2.084,2.084,0,0,1-1.2,1.744,2.517,2.517,0,0,1-1.254.381A1.813,1.813,0,0,1,38.912,26.506Zm-.7-5.036a.989.989,0,0,0-.526.644,1.544,1.544,0,0,0,.077.833,6.314,6.314,0,0,0,.5,1.036,7,7,0,0,0,.659.975,1.472,1.472,0,0,0,.685.487,1.2,1.2,0,0,0,1.355-.782,1.472,1.472,0,0,0-.079-.836,6.964,6.964,0,0,0-.515-1.058,6.337,6.337,0,0,0-.649-.948,1.548,1.548,0,0,0-.683-.483.8.8,0,0,0-.251-.04A1.147,1.147,0,0,0,38.21,21.47Zm-15.48-1.149-.773.446-.594-1.028,1.921-1.109,3.355,5.811-1.148.663Zm36.832-.492-.773.447L58.2,19.248l1.921-1.109,3.355,5.811-1.148.663ZM43.933,23.607a4.687,4.687,0,0,1-1.754-1.889,4.616,4.616,0,0,1-.749-2.448,2.473,2.473,0,0,1,3.308-1.91,4.622,4.622,0,0,1,1.746,1.873,4.691,4.691,0,0,1,.758,2.464,2.082,2.082,0,0,1-1.2,1.744,2.516,2.516,0,0,1-1.254.381A1.811,1.811,0,0,1,43.933,23.607Zm-.7-5.036a.987.987,0,0,0-.526.644,1.544,1.544,0,0,0,.077.833,6.332,6.332,0,0,0,.5,1.036,6.956,6.956,0,0,0,.659.975,1.47,1.47,0,0,0,.685.486,1.2,1.2,0,0,0,1.355-.782,1.475,1.475,0,0,0-.079-.836,7,7,0,0,0-.515-1.058,6.356,6.356,0,0,0-.649-.948,1.547,1.547,0,0,0-.682-.483.8.8,0,0,0-.251-.04A1.147,1.147,0,0,0,43.231,18.571Zm19.088-.334-.773.446-.594-1.028,1.921-1.109,3.355,5.811-1.148.663Zm-34.675,4.55A4.693,4.693,0,0,1,25.889,20.9a4.619,4.619,0,0,1-.749-2.448,2.091,2.091,0,0,1,1.2-1.736,2.091,2.091,0,0,1,2.105-.174,4.619,4.619,0,0,1,1.746,1.873,4.69,4.69,0,0,1,.758,2.464,2.083,2.083,0,0,1-1.2,1.744A2.519,2.519,0,0,1,28.5,23,1.816,1.816,0,0,1,27.644,22.788Zm-.7-5.037a.987.987,0,0,0-.526.644,1.545,1.545,0,0,0,.077.833,6.344,6.344,0,0,0,.5,1.036,6.934,6.934,0,0,0,.659.975,1.47,1.47,0,0,0,.685.487,1.2,1.2,0,0,0,1.355-.782,1.474,1.474,0,0,0-.079-.836,7.009,7.009,0,0,0-.515-1.058,6.343,6.343,0,0,0-.649-.948,1.549,1.549,0,0,0-.682-.483.8.8,0,0,0-.251-.04A1.147,1.147,0,0,0,26.942,17.751ZM46.8,16.65l-.774.446-.594-1.028,1.921-1.109,3.355,5.811-1.148.663ZM67.234,20.7a4.689,4.689,0,0,1-1.754-1.889,4.617,4.617,0,0,1-.749-2.448,2.091,2.091,0,0,1,1.2-1.736,2.091,2.091,0,0,1,2.105-.174,4.621,4.621,0,0,1,1.746,1.872,4.689,4.689,0,0,1,.758,2.464,2.083,2.083,0,0,1-1.2,1.744,2.518,2.518,0,0,1-1.254.381A1.813,1.813,0,0,1,67.234,20.7Zm-.7-5.036a.988.988,0,0,0-.526.644,1.546,1.546,0,0,0,.077.832,6.318,6.318,0,0,0,.5,1.036,6.964,6.964,0,0,0,.659.975,1.472,1.472,0,0,0,.685.487,1.2,1.2,0,0,0,1.355-.782,1.472,1.472,0,0,0-.079-.836,7,7,0,0,0-.515-1.058,6.317,6.317,0,0,0-.649-.948,1.545,1.545,0,0,0-.682-.483.8.8,0,0,0-.251-.04A1.147,1.147,0,0,0,66.532,15.667Zm-36.023.163-.774.447-.594-1.029,1.921-1.109,3.355,5.811-1.148.663Zm-16.78,4.53a4.685,4.685,0,0,1-1.754-1.889,4.615,4.615,0,0,1-.749-2.448,2.091,2.091,0,0,1,1.2-1.736,2.091,2.091,0,0,1,2.105-.174,4.615,4.615,0,0,1,1.745,1.873,4.688,4.688,0,0,1,.758,2.464,2.084,2.084,0,0,1-1.2,1.744,2.518,2.518,0,0,1-1.254.381A1.815,1.815,0,0,1,13.729,20.36Zm-.7-5.036a.987.987,0,0,0-.526.644,1.541,1.541,0,0,0,.077.833,6.341,6.341,0,0,0,.5,1.036,6.969,6.969,0,0,0,.658.975,1.473,1.473,0,0,0,.685.487,1.2,1.2,0,0,0,1.355-.782,1.476,1.476,0,0,0-.079-.837,7,7,0,0,0-.515-1.058,6.311,6.311,0,0,0-.649-.949,1.541,1.541,0,0,0-.683-.482.789.789,0,0,0-.251-.041A1.15,1.15,0,0,0,13.026,15.323Zm38.686,3.793a4.681,4.681,0,0,1-1.755-1.888,4.617,4.617,0,0,1-.749-2.448,2.091,2.091,0,0,1,1.2-1.736,2.09,2.09,0,0,1,2.1-.174,4.618,4.618,0,0,1,1.746,1.873,4.687,4.687,0,0,1,.758,2.464,2.085,2.085,0,0,1-1.2,1.744,2.521,2.521,0,0,1-1.254.381A1.814,1.814,0,0,1,51.712,19.116Zm-.7-5.036a.988.988,0,0,0-.526.644,1.544,1.544,0,0,0,.077.832,6.3,6.3,0,0,0,.5,1.036,7.009,7.009,0,0,0,.659.975,1.472,1.472,0,0,0,.685.487,1.2,1.2,0,0,0,1.355-.782,1.473,1.473,0,0,0-.079-.837,6.952,6.952,0,0,0-.515-1.058,6.319,6.319,0,0,0-.649-.948,1.546,1.546,0,0,0-.683-.483.8.8,0,0,0-.251-.04A1.147,1.147,0,0,0,51.01,14.08Zm-17.744.158-.773.446L31.9,13.656l1.921-1.109,3.355,5.811-1.148.663ZM72.255,17.8A4.682,4.682,0,0,1,70.5,15.916a4.617,4.617,0,0,1-.749-2.448,2.091,2.091,0,0,1,1.2-1.736,2.091,2.091,0,0,1,2.105-.174,4.62,4.62,0,0,1,1.745,1.873,4.689,4.689,0,0,1,.758,2.464,2.083,2.083,0,0,1-1.2,1.744,2.521,2.521,0,0,1-1.254.381A1.811,1.811,0,0,1,72.255,17.8Zm-.7-5.036a.987.987,0,0,0-.526.644,1.541,1.541,0,0,0,.077.833,6.331,6.331,0,0,0,.5,1.036,6.958,6.958,0,0,0,.658.975,1.473,1.473,0,0,0,.685.487A1.2,1.2,0,0,0,74.3,15.96a1.476,1.476,0,0,0-.079-.837,7,7,0,0,0-.515-1.058,6.318,6.318,0,0,0-.649-.948,1.544,1.544,0,0,0-.683-.483.8.8,0,0,0-.251-.04A1.147,1.147,0,0,0,71.553,12.768Zm-52.8,4.693A4.688,4.688,0,0,1,17,15.572a4.618,4.618,0,0,1-.749-2.448,2.09,2.09,0,0,1,1.2-1.736,2.091,2.091,0,0,1,2.1-.174A4.619,4.619,0,0,1,21.3,13.087a4.687,4.687,0,0,1,.758,2.464,2.086,2.086,0,0,1-1.2,1.745,2.521,2.521,0,0,1-1.254.381A1.814,1.814,0,0,1,18.75,17.461Zm-.7-5.036a.989.989,0,0,0-.526.644,1.544,1.544,0,0,0,.077.833,6.314,6.314,0,0,0,.5,1.036,7,7,0,0,0,.659.975,1.47,1.47,0,0,0,.685.487,1.2,1.2,0,0,0,1.355-.782,1.473,1.473,0,0,0-.079-.837,6.972,6.972,0,0,0-.515-1.058,6.357,6.357,0,0,0-.649-.949,1.545,1.545,0,0,0-.683-.482.789.789,0,0,0-.251-.041A1.151,1.151,0,0,0,18.048,12.424Zm36.528-.265-.773.446-.594-1.028,1.921-1.109,3.355,5.811-1.148.662ZM38.18,16.7a4.69,4.69,0,0,1-1.754-1.889,4.616,4.616,0,0,1-.749-2.448,2.09,2.09,0,0,1,1.2-1.736,2.09,2.09,0,0,1,2.1-.174A4.62,4.62,0,0,1,40.73,12.33a4.688,4.688,0,0,1,.758,2.464,2.084,2.084,0,0,1-1.2,1.744,2.517,2.517,0,0,1-1.254.381A1.813,1.813,0,0,1,38.18,16.7Zm-.7-5.036a.988.988,0,0,0-.526.644,1.547,1.547,0,0,0,.077.833,6.33,6.33,0,0,0,.5,1.036,7.015,7.015,0,0,0,.659.975,1.471,1.471,0,0,0,.685.486,1.2,1.2,0,0,0,1.355-.782,1.472,1.472,0,0,0-.079-.836,7,7,0,0,0-.515-1.058,6.358,6.358,0,0,0-.649-.948,1.549,1.549,0,0,0-.683-.483.8.8,0,0,0-.251-.04A1.146,1.146,0,0,0,37.478,11.668Zm19.856-1.1-.773.446-.594-1.028,1.921-1.109,3.355,5.811L60.1,15.35Zm19.943,4.338a4.687,4.687,0,0,1-1.755-1.889,4.617,4.617,0,0,1-.749-2.448,2.091,2.091,0,0,1,1.2-1.736,2.091,2.091,0,0,1,2.1-.174,4.619,4.619,0,0,1,1.746,1.873A4.686,4.686,0,0,1,80.585,13a2.084,2.084,0,0,1-1.2,1.744,2.52,2.52,0,0,1-1.254.381A1.811,1.811,0,0,1,77.277,14.905Zm-.7-5.036a.987.987,0,0,0-.526.644,1.544,1.544,0,0,0,.077.833,6.312,6.312,0,0,0,.5,1.036,7.008,7.008,0,0,0,.659.975,1.476,1.476,0,0,0,.685.487,1.2,1.2,0,0,0,1.355-.783,1.472,1.472,0,0,0-.079-.836,6.949,6.949,0,0,0-.515-1.058,6.344,6.344,0,0,0-.649-.948,1.548,1.548,0,0,0-.683-.483.8.8,0,0,0-.251-.04A1.147,1.147,0,0,0,76.574,9.869Zm-52.8,4.693a4.687,4.687,0,0,1-1.754-1.889,4.618,4.618,0,0,1-.749-2.448,2.091,2.091,0,0,1,1.2-1.736,2.09,2.09,0,0,1,2.105-.174,4.615,4.615,0,0,1,1.745,1.873,4.687,4.687,0,0,1,.758,2.464,2.083,2.083,0,0,1-1.2,1.744,2.518,2.518,0,0,1-1.254.381A1.815,1.815,0,0,1,23.772,14.562Zm-.7-5.036a.988.988,0,0,0-.526.644A1.54,1.54,0,0,0,22.62,11a6.346,6.346,0,0,0,.5,1.036,6.938,6.938,0,0,0,.659.975,1.47,1.47,0,0,0,.685.487,1.2,1.2,0,0,0,1.355-.782,1.476,1.476,0,0,0-.079-.837,7,7,0,0,0-.515-1.057,6.323,6.323,0,0,0-.649-.949,1.546,1.546,0,0,0-.682-.483.8.8,0,0,0-.251-.04A1.151,1.151,0,0,0,23.069,9.525Zm17.976.222-.773.446-.594-1.028L41.6,8.056l3.355,5.811-1.148.663ZM5.819,9.59l-.773.446L4.452,9.008,6.373,7.9,9.728,13.71l-1.148.663Zm56.429,3.443a4.692,4.692,0,0,1-1.754-1.889A4.614,4.614,0,0,1,59.745,8.7a2.09,2.09,0,0,1,1.2-1.736,2.092,2.092,0,0,1,2.105-.174A4.618,4.618,0,0,1,64.8,8.659a4.688,4.688,0,0,1,.758,2.464,2.084,2.084,0,0,1-1.2,1.744,2.519,2.519,0,0,1-1.254.381A1.817,1.817,0,0,1,62.248,13.034ZM61.546,8a.986.986,0,0,0-.526.644,1.541,1.541,0,0,0,.077.833,6.338,6.338,0,0,0,.5,1.036,6.98,6.98,0,0,0,.658.975,1.473,1.473,0,0,0,.685.487,1.2,1.2,0,0,0,1.355-.782,1.475,1.475,0,0,0-.079-.836A7,7,0,0,0,63.7,9.294a6.318,6.318,0,0,0-.649-.948,1.544,1.544,0,0,0-.683-.483.8.8,0,0,0-.251-.04A1.147,1.147,0,0,0,61.546,8ZM8.577,8,7.8,8.445,7.21,7.416,9.131,6.307l3.355,5.811-1.148.663Zm71.565-.05-.773.447-.594-1.028L80.7,6.257l3.355,5.811-1.148.663ZM45.959,12.213A4.68,4.68,0,0,1,44.2,10.324a4.614,4.614,0,0,1-.749-2.448,2.091,2.091,0,0,1,1.2-1.736,2.091,2.091,0,0,1,2.105-.174,4.617,4.617,0,0,1,1.745,1.873,4.687,4.687,0,0,1,.758,2.464,2.085,2.085,0,0,1-1.2,1.745,2.521,2.521,0,0,1-1.254.381A1.815,1.815,0,0,1,45.959,12.213Zm-.7-5.036a.986.986,0,0,0-.526.644,1.54,1.54,0,0,0,.077.832,6.342,6.342,0,0,0,.5,1.036,6.97,6.97,0,0,0,.658.975,1.475,1.475,0,0,0,.685.487A1.2,1.2,0,0,0,48,10.369a1.476,1.476,0,0,0-.079-.837,7,7,0,0,0-.515-1.058,6.306,6.306,0,0,0-.649-.948,1.543,1.543,0,0,0-.683-.483A.8.8,0,0,0,45.827,7,1.147,1.147,0,0,0,45.257,7.177ZM26.636,7.6l-.773.446-.594-1.028L27.19,5.913l3.355,5.811-1.148.663ZM65.113,6.076l-.773.447-.594-1.028,1.921-1.109L69.022,10.2l-1.148.663ZM29.393,6.012l-.773.447L28.026,5.43l1.921-1.109L33.3,10.132l-1.148.663Zm-15.9,4.452a4.685,4.685,0,0,1-1.754-1.888,4.618,4.618,0,0,1-.749-2.448,2.091,2.091,0,0,1,1.2-1.736A2.091,2.091,0,0,1,14.3,4.218,4.615,4.615,0,0,1,16.041,6.09,4.687,4.687,0,0,1,16.8,8.554,2.083,2.083,0,0,1,15.6,10.3a2.518,2.518,0,0,1-1.254.381A1.815,1.815,0,0,1,13.491,10.464Zm-.7-5.036a.987.987,0,0,0-.526.644,1.54,1.54,0,0,0,.077.832,6.319,6.319,0,0,0,.5,1.036,6.974,6.974,0,0,0,.658.975,1.472,1.472,0,0,0,.685.487,1.2,1.2,0,0,0,1.355-.782,1.476,1.476,0,0,0-.079-.837,6.985,6.985,0,0,0-.515-1.058,6.325,6.325,0,0,0-.649-.949,1.54,1.54,0,0,0-.683-.483.789.789,0,0,0-.251-.04A1.151,1.151,0,0,0,12.789,5.428Zm72.267,4.986A4.685,4.685,0,0,1,83.3,8.526a4.619,4.619,0,0,1-.749-2.448,2.091,2.091,0,0,1,1.2-1.736,2.091,2.091,0,0,1,2.105-.174A4.614,4.614,0,0,1,87.605,6.04,4.688,4.688,0,0,1,88.364,8.5a2.084,2.084,0,0,1-1.2,1.744,2.518,2.518,0,0,1-1.254.381A1.815,1.815,0,0,1,85.056,10.414Zm-.7-5.036a.986.986,0,0,0-.526.644,1.541,1.541,0,0,0,.077.833,6.332,6.332,0,0,0,.5,1.036,6.923,6.923,0,0,0,.658.975,1.477,1.477,0,0,0,.685.487A1.2,1.2,0,0,0,87.1,8.57a1.476,1.476,0,0,0-.079-.837,7.006,7.006,0,0,0-.515-1.057,6.343,6.343,0,0,0-.649-.949,1.541,1.541,0,0,0-.683-.483.785.785,0,0,0-.251-.04A1.149,1.149,0,0,0,84.353,5.378Zm-35.53-.123L48.05,5.7l-.594-1.028,1.921-1.109,3.355,5.811-1.148.662ZM67.87,4.484,67.1,4.93,66.5,3.9l1.921-1.109L71.779,8.6l-1.148.663ZM34.308,8.478A4.687,4.687,0,0,1,32.553,6.59,4.621,4.621,0,0,1,31.8,4.142a2.091,2.091,0,0,1,1.2-1.736,2.091,2.091,0,0,1,2.105-.174A4.617,4.617,0,0,1,36.858,4.1a4.687,4.687,0,0,1,.758,2.464,2.083,2.083,0,0,1-1.2,1.744,2.518,2.518,0,0,1-1.254.381A1.814,1.814,0,0,1,34.308,8.478Zm-.7-5.036a.986.986,0,0,0-.526.644,1.548,1.548,0,0,0,.077.833,6.353,6.353,0,0,0,.5,1.036,7,7,0,0,0,.659.974A1.476,1.476,0,0,0,35,7.417a1.012,1.012,0,0,0,.823-.14,1.011,1.011,0,0,0,.533-.642,1.472,1.472,0,0,0-.079-.836,6.967,6.967,0,0,0-.515-1.058,6.317,6.317,0,0,0-.649-.949,1.542,1.542,0,0,0-.682-.483.8.8,0,0,0-.251-.04A1.147,1.147,0,0,0,33.606,3.442Zm17.975.221-.773.446-.594-1.028,1.921-1.109L55.49,7.784l-1.148.663ZM16.355,3.507l-.773.446-.594-1.028L16.91,1.816l3.355,5.811-1.148.663Zm71.565-.05-.773.446-.594-1.028,1.921-1.109,3.355,5.811-1.148.663ZM2.506,7.512A4.685,4.685,0,0,1,.752,5.623,4.618,4.618,0,0,1,0,3.176a2.091,2.091,0,0,1,1.2-1.736,2.09,2.09,0,0,1,2.1-.174A4.614,4.614,0,0,1,5.056,3.139,4.686,4.686,0,0,1,5.815,5.6a2.085,2.085,0,0,1-1.2,1.744,2.518,2.518,0,0,1-1.254.381A1.815,1.815,0,0,1,2.506,7.512ZM1.8,2.475a.989.989,0,0,0-.526.644,1.544,1.544,0,0,0,.077.833,6.3,6.3,0,0,0,.5,1.036,7,7,0,0,0,.659.975A1.471,1.471,0,0,0,3.2,6.45a1.009,1.009,0,0,0,.823-.14,1.008,1.008,0,0,0,.533-.642,1.473,1.473,0,0,0-.079-.837,6.958,6.958,0,0,0-.515-1.058,6.357,6.357,0,0,0-.649-.949,1.543,1.543,0,0,0-.683-.482A.8.8,0,0,0,2.374,2.3,1.151,1.151,0,0,0,1.8,2.475ZM72.785,6.95A4.69,4.69,0,0,1,71.03,5.061a4.617,4.617,0,0,1-.749-2.448,2.091,2.091,0,0,1,1.2-1.736A2.092,2.092,0,0,1,73.589.7a4.623,4.623,0,0,1,1.746,1.873,4.688,4.688,0,0,1,.758,2.464,2.083,2.083,0,0,1-1.2,1.744,2.518,2.518,0,0,1-1.254.381A1.814,1.814,0,0,1,72.785,6.95Zm-.7-5.036a.987.987,0,0,0-.526.644,1.547,1.547,0,0,0,.077.833,6.345,6.345,0,0,0,.5,1.036,6.934,6.934,0,0,0,.659.975,1.47,1.47,0,0,0,.685.487,1.01,1.01,0,0,0,.823-.14,1.012,1.012,0,0,0,.533-.642,1.475,1.475,0,0,0-.079-.836,6.993,6.993,0,0,0-.515-1.058,6.362,6.362,0,0,0-.649-.948A1.546,1.546,0,0,0,72.9,1.78a.8.8,0,0,0-.251-.04A1.147,1.147,0,0,0,72.082,1.914Zm-52.97,0-.773.447-.594-1.028L19.667.224l3.355,5.811L21.874,6.7ZM56.5,6.13a4.693,4.693,0,0,1-1.754-1.889,4.617,4.617,0,0,1-.749-2.448,2.09,2.09,0,0,1,1.2-1.736L55.3,0H57.5a4.933,4.933,0,0,1,1.543,1.756A4.687,4.687,0,0,1,59.8,4.22a2.083,2.083,0,0,1-1.2,1.744,2.518,2.518,0,0,1-1.254.381A1.817,1.817,0,0,1,56.5,6.13Zm-.7-5.037a.985.985,0,0,0-.526.644,1.545,1.545,0,0,0,.077.833,6.337,6.337,0,0,0,.5,1.036,6.949,6.949,0,0,0,.659.975,1.471,1.471,0,0,0,.685.487,1.011,1.011,0,0,0,.823-.14,1.012,1.012,0,0,0,.533-.642,1.475,1.475,0,0,0-.079-.836,7,7,0,0,0-.515-1.058,6.337,6.337,0,0,0-.649-.948A1.545,1.545,0,0,0,56.614.96a.8.8,0,0,0-.251-.04A1.147,1.147,0,0,0,55.793,1.094Zm-18.621.428-.773.446L35.805.939,37.432,0h.392l3.257,5.641L39.934,6.3ZM5.371.555,4.6,1,4.019,0H6.581l2.7,4.675-1.148.663ZM24.027,4.381a4.686,4.686,0,0,1-1.754-1.888A4.617,4.617,0,0,1,21.524.045c0-.015,0-.03,0-.045H22.8a1.553,1.553,0,0,0,.079.821,6.331,6.331,0,0,0,.5,1.036,6.965,6.965,0,0,0,.659.975,1.475,1.475,0,0,0,.685.487,1.012,1.012,0,0,0,.823-.14,1.012,1.012,0,0,0,.533-.643,1.476,1.476,0,0,0-.079-.837A7,7,0,0,0,25.477.642Q25.266.277,25.068,0h1.506l0,.007a4.687,4.687,0,0,1,.758,2.464,2.083,2.083,0,0,1-1.2,1.744,2.517,2.517,0,0,1-1.254.381A1.814,1.814,0,0,1,24.027,4.381Zm53.779-.33a4.688,4.688,0,0,1-1.754-1.889A5,5,0,0,1,75.3,0h1.248a1.76,1.76,0,0,0,.1.492,6.338,6.338,0,0,0,.5,1.035,7,7,0,0,0,.659.975,1.473,1.473,0,0,0,.685.487,1.011,1.011,0,0,0,.823-.14,1.012,1.012,0,0,0,.533-.642,1.472,1.472,0,0,0-.079-.836A6.948,6.948,0,0,0,79.256.312q-.1-.165-.188-.312h1.465a4.354,4.354,0,0,1,.581,2.141,2.083,2.083,0,0,1-1.2,1.744,2.52,2.52,0,0,1-1.254.381A1.812,1.812,0,0,1,77.806,4.051ZM42.087,3.987A4.692,4.692,0,0,1,40.332,2.1,5.094,5.094,0,0,1,39.59,0h1.248a1.8,1.8,0,0,0,.1.428,6.361,6.361,0,0,0,.5,1.036,7.018,7.018,0,0,0,.659.975,1.473,1.473,0,0,0,.685.487,1.011,1.011,0,0,0,.823-.14,1.011,1.011,0,0,0,.533-.642,1.473,1.473,0,0,0-.079-.836A6.952,6.952,0,0,0,43.536.249Q43.462.119,43.388,0h1.458a4.29,4.29,0,0,1,.549,2.078,2.083,2.083,0,0,1-1.2,1.744,2.52,2.52,0,0,1-1.254.381A1.812,1.812,0,0,1,42.087,3.987Zm19.43-.757a4.691,4.691,0,0,1-1.755-1.889A6.283,6.283,0,0,1,59.165,0H60.5a7.711,7.711,0,0,0,.365.707,7.026,7.026,0,0,0,.659.975,1.476,1.476,0,0,0,.685.487,1.011,1.011,0,0,0,.823-.14,1.012,1.012,0,0,0,.533-.642A1.472,1.472,0,0,0,63.482.55a5.411,5.411,0,0,0-.24-.55H64.6a3.6,3.6,0,0,1,.223,1.321,2.083,2.083,0,0,1-1.2,1.744,2.52,2.52,0,0,1-1.254.381A1.811,1.811,0,0,1,61.517,3.231Zm-51.232-.21A4.687,4.687,0,0,1,8.531,1.132,6.634,6.634,0,0,1,8,0H9.364q.115.234.267.5a6.957,6.957,0,0,0,.659.975,1.471,1.471,0,0,0,.685.487,1.011,1.011,0,0,0,.823-.14,1.012,1.012,0,0,0,.533-.642A1.475,1.475,0,0,0,12.25.34Q12.191.18,12.11,0h1.328a3.43,3.43,0,0,1,.155,1.111,2.083,2.083,0,0,1-1.2,1.744,2.519,2.519,0,0,1-1.254.381A1.813,1.813,0,0,1,10.285,3.021ZM28.379,0h1.53L30.8,1.544l-1.148.663ZM46.666,0H48.2l.664,1.15-1.148.663ZM82.827,1.152A3.911,3.911,0,0,1,81.555,0H83.3a1.232,1.232,0,0,0,.213.09A.96.96,0,0,0,84.245,0h1.7a2.444,2.444,0,0,1-1.006.986,2.518,2.518,0,0,1-1.254.381A1.814,1.814,0,0,1,82.827,1.152ZM15.422,0h1.531l.106.184L15.911.846ZM66.538.331a3.055,3.055,0,0,1-.5-.331h2.87q-.122.086-.261.166a2.518,2.518,0,0,1-1.254.381A1.814,1.814,0,0,1,66.538.331ZM50.342,0h.509L50.47.221ZM32.056,0H33.3a2.124,2.124,0,0,1-.642.105A1.784,1.784,0,0,1,32.056,0Z" transform="translate(-356.992 -83.529)" fill="#022c64" stroke="rgba(0,0,0,0)" stroke-width="1"/>
  </g>
</svg>
