<svg xmlns="http://www.w3.org/2000/svg" xmlns:xlink="http://www.w3.org/1999/xlink" width="604" height="312.188" viewBox="0 0 604 312.188">
  <defs>
    <clipPath id="clip-path">
      <rect id="Rectangle_181" data-name="Rectangle 181" width="604" height="127" transform="translate(1081 215)" fill="#fff" stroke="#707070" stroke-width="1"/>
    </clipPath>
    <clipPath id="clip-path-2">
      <rect id="Rectangle_179" data-name="Rectangle 179" width="252.844" height="63.215" fill="#fff"/>
    </clipPath>
    <clipPath id="clip-path-3">
      <rect id="Rectangle_180" data-name="Rectangle 180" width="260.954" height="151.491" fill="#fff"/>
    </clipPath>
  </defs>
  <g id="Group_761" data-name="Group 761" transform="translate(-1081 -215)">
    <path id="Path_526" data-name="Path 526" d="M-296.581-33.675c-1.634,3.007-4.9,4.576-9.544,4.576-7.844,0-11.244-5.1-11.244-8.433v-.131h33.731v-1.046c0-13.2-7.322-20.853-22.488-20.853-13.859,0-23.141,5.622-23.141,18.827s9.283,18.827,23.141,18.827c10.525,0,18.5-3.465,21.834-11.767Zm-20.788-10.786v-.131c0-.85,1.9-7.779,10.982-7.779,8.433,0,10.852,5.883,10.852,7.779v.131Zm42.295,6.995h23.337v-8.89h-23.337Zm80.014-18.892c-.85-13.2-15.1-14.839-24.71-14.839-14.643,0-23.141,4.249-23.141,14.643,0,9.544,7.844,11.963,15.95,13.2l11.571,1.765c5.034.784,7.91,1.765,7.91,5.36,0,4.053-4.053,5.818-10,5.818-5.491,0-11.9-1.111-12.028-7.518h-14.251c.131,14.578,14.9,16.016,26.279,16.016,18.369,0,24.253-6.995,24.253-15.689,0-8.5-6.472-11.7-14.97-13.074l-15.885-2.549c-3.269-.523-5.36-1.9-5.36-4.38,0-3.138,3.4-5.491,8.629-5.491,5.1,0,10.917.654,11.7,6.733Zm40.4,22.684c-1.634,3.007-4.9,4.576-9.544,4.576-7.844,0-11.244-5.1-11.244-8.433v-.131h33.731v-1.046c0-13.2-7.321-20.853-22.487-20.853-13.859,0-23.141,5.622-23.141,18.827s9.283,18.827,23.141,18.827c10.525,0,18.5-3.465,21.834-11.767Zm-20.788-10.786v-.131c0-.85,1.9-7.779,10.982-7.779,8.433,0,10.852,5.883,10.852,7.779v.131Zm42.164,21.245h11.505v-15.1c0-6.8,3.726-10.786,11.571-10.786a23.4,23.4,0,0,1,6.341,1.046V-58.843a22.567,22.567,0,0,0-4.184-.327c-6.537,0-9.806,2.419-13.989,7.779h-.131v-6.864h-11.113Zm47.851,0H-72.36l16.081-35.039H-69.353L-78.9-33.675l-9.544-24.579h-13.074Zm34.843,0h11.505V-58.255H-50.591Zm0-39.353h11.505v-8.106H-50.591ZM14.256-45.311C12.1-56.882,1.705-59.562-7.185-59.562c-13.859,0-23.141,5.622-23.141,18.827s8.956,18.827,22.161,18.827c11.44,0,20.33-2.811,22.422-15.231H2.359c-.588,4.38-4.445,7.125-9.544,7.125-7.125,0-11.244-3.857-11.244-10.721s4.118-10.721,11.244-10.721c4.641,0,8.171,1.5,9.544,6.145ZM53.021-33.675c-1.634,3.007-4.9,4.576-9.544,4.576-7.844,0-11.244-5.1-11.244-8.433v-.131H65.964v-1.046c0-13.2-7.322-20.853-22.488-20.853-13.859,0-23.141,5.622-23.141,18.827s9.283,18.827,23.141,18.827c10.525,0,18.5-3.465,21.834-11.767ZM32.233-44.461v-.131c0-.85,1.9-7.779,10.982-7.779,8.433,0,10.852,5.883,10.852,7.779v.131ZM72.371-34.067c.588,8.3,7.322,12.159,20.592,12.159,10,0,21.638-1.438,21.638-11.832,0-6.079-3.791-9.544-15.493-10.786l-7.975-.85c-4.968-.523-5.818-1.634-5.818-3.269,0-3.465,4.511-3.726,7.518-3.726,3.334,0,7.125,1.046,7.779,4.641h12.682c-.784-6.537-4.576-11.832-20.722-11.832-9.544,0-19.154,2.288-19.154,11.767,0,6.668,4.184,8.956,11.505,9.936l10.459,1.438c5.556.784,6.537,1.569,6.537,3.53,0,2.549-3.072,3.792-8.3,3.792-5.949,0-8.041-1.961-8.564-4.968Z" transform="translate(1473.476 423.619)" fill="#fff"/>
    <g id="Group_490" data-name="Group 490">
      <g id="Mask_Group_2" data-name="Mask Group 2" clip-path="url(#clip-path)">
        <g id="Group_489" data-name="Group 489" transform="translate(-24.602 656.829) rotate(-31)">
          <g id="Group_486" data-name="Group 486" transform="translate(1215.933 371.879)">
            <g id="Group_485" data-name="Group 485" transform="translate(0 0)" clip-path="url(#clip-path-2)">
              <path id="Path_543" data-name="Path 543" d="M252.83,36.24a14.523,14.523,0,0,0-13.9-15.124c-.371-.017-.744-.018-1.116-.005H109.908a4.869,4.869,0,0,1-4-1.579L91.061,4.705l-.135-.134A14.311,14.311,0,0,0,79.535.028H16.263A15.666,15.666,0,0,0,0,15.079l0,.078V63.214H252.83Z" transform="translate(0 0)" fill="#fff"/>
            </g>
          </g>
          <g id="Group_488" data-name="Group 488" transform="translate(1207.822 443.964)">
            <g id="Group_487" data-name="Group 487" clip-path="url(#clip-path-3)">
              <path id="Path_544" data-name="Path 544" d="M18.629,0H13.794C6.335,0-.95,2.973.1,14.175S13.794,136.921,13.794,136.921c1.575,10.372,6.816,14.57,14.569,14.57H233.742c7.4,0,12.234-4.545,13.388-14.57,0,0,12.936-107.73,13.751-119.733S255.695,0,247.13,0H18.629" transform="translate(0 0)" fill="#fff"/>
            </g>
          </g>
        </g>
      </g>
    </g>
    <path id="Intersection_2" data-name="Intersection 2" d="M-306.669,2835.994a12.22,12.22,0,0,1-4.576-4.924,12.049,12.049,0,0,1-1.953-6.383q.124-2.786,3.137-4.527t5.488-.453a12.046,12.046,0,0,1,4.551,4.883,12.222,12.222,0,0,1,1.977,6.424q-.111,2.808-3.125,4.548a6.565,6.565,0,0,1-3.27.993A4.729,4.729,0,0,1-306.669,2835.994Zm-1.832-13.132a2.578,2.578,0,0,0-1.372,1.679,4.026,4.026,0,0,0,.2,2.171,16.5,16.5,0,0,0,1.3,2.7,18.249,18.249,0,0,0,1.717,2.542,3.84,3.84,0,0,0,1.786,1.269,2.633,2.633,0,0,0,2.144-.365,2.637,2.637,0,0,0,1.39-1.675,3.841,3.841,0,0,0-.207-2.182,18.158,18.158,0,0,0-1.343-2.758,16.5,16.5,0,0,0-1.691-2.473,4.02,4.02,0,0,0-1.78-1.259,2.084,2.084,0,0,0-.653-.1A3,3,0,0,0-308.5,2822.862Zm9.3-5.009-2.016,1.164-1.548-2.681,5.009-2.892,8.748,15.152-2.993,1.729Zm12.814,6.43a12.232,12.232,0,0,1-4.575-4.924,12.043,12.043,0,0,1-1.953-6.383q.123-2.788,3.137-4.527t5.489-.453a12.046,12.046,0,0,1,4.551,4.883,12.22,12.22,0,0,1,1.976,6.423q-.111,2.808-3.125,4.548a6.57,6.57,0,0,1-3.27.995A4.729,4.729,0,0,1-286.386,2824.284Zm-1.831-13.132a2.573,2.573,0,0,0-1.372,1.679,4.035,4.035,0,0,0,.2,2.171,16.507,16.507,0,0,0,1.3,2.7,18.037,18.037,0,0,0,1.717,2.542,3.834,3.834,0,0,0,1.786,1.269,2.636,2.636,0,0,0,2.145-.365,2.637,2.637,0,0,0,1.389-1.675,3.845,3.845,0,0,0-.206-2.181,18.258,18.258,0,0,0-1.343-2.759,16.54,16.54,0,0,0-1.692-2.473,4.022,4.022,0,0,0-1.779-1.258,2.066,2.066,0,0,0-.654-.105A2.987,2.987,0,0,0-288.217,2811.152Zm9.3-5.009-2.016,1.164-1.548-2.681,5.008-2.893,8.748,15.153-2.992,1.727Zm-46.376-.731-2.016,1.164-1.548-2.681,5.009-2.892,8.748,15.152-2.993,1.728Zm53.566-3.421-2.017,1.165-1.548-2.682,5.009-2.892,8.748,15.152-2.992,1.728Zm-46.376-.731-2.016,1.165-1.548-2.681,5.009-2.893L-307.91,2812l-2.993,1.728Zm59.19,7.161a12.221,12.221,0,0,1-4.576-4.924,12.043,12.043,0,0,1-1.953-6.383q.123-2.786,3.137-4.527t5.488-.452a12.024,12.024,0,0,1,4.551,4.882,12.222,12.222,0,0,1,1.977,6.424q-.112,2.807-3.125,4.548a6.57,6.57,0,0,1-3.27.994A4.726,4.726,0,0,1-258.913,2808.422Zm-1.832-13.132a2.578,2.578,0,0,0-1.372,1.679,4.027,4.027,0,0,0,.2,2.171,16.465,16.465,0,0,0,1.3,2.7,18.252,18.252,0,0,0,1.717,2.542,3.848,3.848,0,0,0,1.786,1.27,2.643,2.643,0,0,0,2.145-.365,2.638,2.638,0,0,0,1.389-1.675,3.84,3.84,0,0,0-.206-2.182,18.125,18.125,0,0,0-1.343-2.758,16.508,16.508,0,0,0-1.691-2.474,4.029,4.029,0,0,0-1.78-1.258,2.066,2.066,0,0,0-.654-.105A2.987,2.987,0,0,0-260.744,2795.29Zm-44.545,12.4a12.216,12.216,0,0,1-4.575-4.924,12.041,12.041,0,0,1-1.953-6.383q.123-2.786,3.137-4.527t5.489-.453a12.04,12.04,0,0,1,4.551,4.882,12.229,12.229,0,0,1,1.976,6.424q-.111,2.808-3.125,4.548a6.562,6.562,0,0,1-3.269.994A4.732,4.732,0,0,1-305.289,2807.691Zm-1.832-13.131a2.57,2.57,0,0,0-1.372,1.678,4.026,4.026,0,0,0,.2,2.171,16.516,16.516,0,0,0,1.3,2.7,18.049,18.049,0,0,0,1.717,2.542,3.835,3.835,0,0,0,1.786,1.269,2.636,2.636,0,0,0,2.145-.365,2.638,2.638,0,0,0,1.389-1.675,3.844,3.844,0,0,0-.206-2.181,18.222,18.222,0,0,0-1.343-2.759,16.552,16.552,0,0,0-1.692-2.474,4.022,4.022,0,0,0-1.779-1.258,2.057,2.057,0,0,0-.653-.1A3,3,0,0,0-307.121,2794.56Zm55.676-4.278-2.016,1.163-1.548-2.681,5.009-2.892,8.748,15.152-2.993,1.728Zm-46.375-.732-2.017,1.164-1.548-2.681,5.009-2.892,8.748,15.152-2.992,1.728Zm-36.849,8.443a12.222,12.222,0,0,1-4.576-4.924,12.051,12.051,0,0,1-1.953-6.383q.124-2.786,3.137-4.527t5.488-.453a12.034,12.034,0,0,1,4.551,4.883,12.222,12.222,0,0,1,1.977,6.424,5.436,5.436,0,0,1-3.125,4.548,6.562,6.562,0,0,1-3.27.994A4.732,4.732,0,0,1-334.669,2797.994Zm-1.832-13.132a2.578,2.578,0,0,0-1.372,1.679,4.028,4.028,0,0,0,.2,2.171,16.5,16.5,0,0,0,1.3,2.7,18.252,18.252,0,0,0,1.717,2.542,3.844,3.844,0,0,0,1.786,1.269,2.636,2.636,0,0,0,2.145-.365,2.633,2.633,0,0,0,1.389-1.675,3.839,3.839,0,0,0-.206-2.181,18.126,18.126,0,0,0-1.343-2.758,16.5,16.5,0,0,0-1.691-2.474,4.024,4.024,0,0,0-1.78-1.258,2.059,2.059,0,0,0-.654-.105A2.987,2.987,0,0,0-336.5,2784.862Zm97.87,11.849a12.215,12.215,0,0,1-4.575-4.924,12.037,12.037,0,0,1-1.953-6.382q.123-2.788,3.136-4.528t5.489-.453a12.039,12.039,0,0,1,4.55,4.882,12.223,12.223,0,0,1,1.977,6.424q-.111,2.808-3.125,4.548a6.565,6.565,0,0,1-3.269.994A4.732,4.732,0,0,1-238.631,2796.711Zm-1.831-13.131a2.573,2.573,0,0,0-1.372,1.678,4.017,4.017,0,0,0,.2,2.171,16.5,16.5,0,0,0,1.3,2.7,18.113,18.113,0,0,0,1.717,2.543,3.833,3.833,0,0,0,1.786,1.269,2.636,2.636,0,0,0,2.145-.365,2.638,2.638,0,0,0,1.389-1.675,3.845,3.845,0,0,0-.206-2.181,18.229,18.229,0,0,0-1.344-2.759,16.421,16.421,0,0,0-1.691-2.472,4.018,4.018,0,0,0-1.779-1.26,2.085,2.085,0,0,0-.653-.1A3,3,0,0,0-240.462,2783.58Zm-44.544,12.4a12.227,12.227,0,0,1-4.576-4.924,12.043,12.043,0,0,1-1.953-6.383q.123-2.788,3.137-4.527t5.488-.454a12.059,12.059,0,0,1,4.551,4.883A12.226,12.226,0,0,1-276.38,2791a5.434,5.434,0,0,1-3.125,4.547,6.562,6.562,0,0,1-3.27.994A4.729,4.729,0,0,1-285.006,2795.981Zm-1.832-13.132a2.578,2.578,0,0,0-1.372,1.679,4.027,4.027,0,0,0,.2,2.171,16.465,16.465,0,0,0,1.3,2.7,18.252,18.252,0,0,0,1.717,2.542,3.838,3.838,0,0,0,1.786,1.269,2.635,2.635,0,0,0,2.145-.365,2.633,2.633,0,0,0,1.389-1.675,3.837,3.837,0,0,0-.206-2.181,18.174,18.174,0,0,0-1.343-2.759,16.53,16.53,0,0,0-1.691-2.473,4.037,4.037,0,0,0-1.78-1.259,2.08,2.08,0,0,0-.653-.1A2.99,2.99,0,0,0-286.837,2782.85Zm-40.363-3-2.016,1.164-1.548-2.681,5.009-2.891,8.748,15.151-2.993,1.728Zm96.038-1.282-2.016,1.165-1.548-2.681,5.009-2.893,8.748,15.152-2.993,1.729Zm-40.751,9.851a12.223,12.223,0,0,1-4.575-4.925,12.035,12.035,0,0,1-1.953-6.382q.123-2.788,3.137-4.527t5.489-.454a12.052,12.052,0,0,1,4.551,4.883,12.231,12.231,0,0,1,1.976,6.425q-.111,2.807-3.125,4.547a6.56,6.56,0,0,1-3.271.994A4.723,4.723,0,0,1-271.913,2788.422Zm-1.831-13.132a2.573,2.573,0,0,0-1.372,1.679,4.026,4.026,0,0,0,.2,2.171,16.511,16.511,0,0,0,1.3,2.7,18.128,18.128,0,0,0,1.717,2.543,3.831,3.831,0,0,0,1.786,1.268,2.632,2.632,0,0,0,2.145-.365,2.638,2.638,0,0,0,1.389-1.675,3.845,3.845,0,0,0-.206-2.181,18.258,18.258,0,0,0-1.343-2.759,16.579,16.579,0,0,0-1.692-2.473,4.032,4.032,0,0,0-1.779-1.259,2.091,2.091,0,0,0-.653-.1A2.99,2.99,0,0,0-273.744,2775.291Zm49.772-.87-2.016,1.164-1.548-2.681,5.009-2.892,8.748,15.152-2.993,1.728Zm-90.414,11.865a12.236,12.236,0,0,1-4.575-4.925,12.044,12.044,0,0,1-1.953-6.384q.123-2.786,3.137-4.526t5.489-.454a12.046,12.046,0,0,1,4.551,4.883,12.229,12.229,0,0,1,1.976,6.424q-.111,2.808-3.125,4.548a6.568,6.568,0,0,1-3.27.994A4.736,4.736,0,0,1-314.386,2786.285Zm-1.831-13.133a2.572,2.572,0,0,0-1.372,1.678,4.029,4.029,0,0,0,.2,2.172,16.546,16.546,0,0,0,1.3,2.7,18.109,18.109,0,0,0,1.717,2.542,3.834,3.834,0,0,0,1.786,1.269,2.636,2.636,0,0,0,2.145-.365,2.637,2.637,0,0,0,1.389-1.675,3.845,3.845,0,0,0-.206-2.181,18.258,18.258,0,0,0-1.343-2.759,16.528,16.528,0,0,0-1.692-2.473,4.037,4.037,0,0,0-1.779-1.259,2.085,2.085,0,0,0-.653-.1A2.99,2.99,0,0,0-316.217,2773.152Zm51.772-2.87-2.017,1.164-1.548-2.681,5.009-2.893,8.748,15.152-2.992,1.728Zm53.286,10.569a12.229,12.229,0,0,1-4.575-4.925,12.037,12.037,0,0,1-1.953-6.382q.123-2.788,3.136-4.527t5.489-.453a12.05,12.05,0,0,1,4.551,4.882,12.225,12.225,0,0,1,1.976,6.424q-.111,2.808-3.125,4.548a6.565,6.565,0,0,1-3.27.994A4.728,4.728,0,0,1-211.158,2780.851Zm-1.831-13.132a2.576,2.576,0,0,0-1.372,1.679,4.031,4.031,0,0,0,.2,2.17,16.476,16.476,0,0,0,1.3,2.7,18.149,18.149,0,0,0,1.717,2.542,3.838,3.838,0,0,0,1.786,1.269,2.636,2.636,0,0,0,2.145-.365,2.636,2.636,0,0,0,1.389-1.675,3.838,3.838,0,0,0-.206-2.181,18.26,18.26,0,0,0-1.343-2.759,16.472,16.472,0,0,0-1.692-2.473,4.029,4.029,0,0,0-1.779-1.259,2.081,2.081,0,0,0-.653-.1A2.99,2.99,0,0,0-212.989,2767.719Zm-93.929.424-2.017,1.165-1.548-2.682,5.009-2.892,8.748,15.152-2.992,1.728Zm-43.752,11.812a12.215,12.215,0,0,1-4.575-4.924,12.034,12.034,0,0,1-1.953-6.383q.123-2.786,3.137-4.527t5.489-.453a12.033,12.033,0,0,1,4.55,4.882,12.225,12.225,0,0,1,1.977,6.424q-.111,2.807-3.125,4.548a6.565,6.565,0,0,1-3.269.994A4.732,4.732,0,0,1-350.669,2779.954Zm-1.831-13.132a2.574,2.574,0,0,0-1.372,1.679,4.018,4.018,0,0,0,.2,2.171,16.543,16.543,0,0,0,1.3,2.7,18.194,18.194,0,0,0,1.716,2.542,3.842,3.842,0,0,0,1.786,1.269,2.63,2.63,0,0,0,2.145-.365,2.634,2.634,0,0,0,1.389-1.674,3.848,3.848,0,0,0-.206-2.182,18.224,18.224,0,0,0-1.344-2.758,16.454,16.454,0,0,0-1.691-2.474,4.021,4.021,0,0,0-1.78-1.258,2.058,2.058,0,0,0-.653-.105A3,3,0,0,0-352.5,2766.822Zm100.87,9.889a12.2,12.2,0,0,1-4.576-4.924,12.038,12.038,0,0,1-1.953-6.383q.123-2.786,3.137-4.527t5.488-.453a12.041,12.041,0,0,1,4.551,4.883,12.223,12.223,0,0,1,1.977,6.424q-.112,2.808-3.125,4.549a6.573,6.573,0,0,1-3.27.993A4.732,4.732,0,0,1-251.63,2776.712Zm-1.831-13.131a2.576,2.576,0,0,0-1.372,1.679,4.025,4.025,0,0,0,.2,2.17,16.426,16.426,0,0,0,1.3,2.7,18.267,18.267,0,0,0,1.717,2.542,3.838,3.838,0,0,0,1.786,1.269,2.636,2.636,0,0,0,2.145-.365,2.634,2.634,0,0,0,1.389-1.674,3.84,3.84,0,0,0-.206-2.182,18.127,18.127,0,0,0-1.343-2.759,16.492,16.492,0,0,0-1.691-2.473,4.031,4.031,0,0,0-1.78-1.259,2.081,2.081,0,0,0-.653-.105A2.992,2.992,0,0,0-253.462,2763.581Zm-46.266.411-2.016,1.164-1.548-2.681,5.009-2.892,8.748,15.152-2.993,1.728Zm101.663,9.3a12.21,12.21,0,0,1-4.575-4.925,12.037,12.037,0,0,1-1.953-6.382q.123-2.788,3.136-4.527t5.489-.454a12.045,12.045,0,0,1,4.55,4.883,12.225,12.225,0,0,1,1.977,6.425q-.111,2.807-3.125,4.547a6.57,6.57,0,0,1-3.271.995A4.723,4.723,0,0,1-198.065,2773.292Zm-1.831-13.132a2.574,2.574,0,0,0-1.372,1.679,4.017,4.017,0,0,0,.2,2.171,16.51,16.51,0,0,0,1.3,2.7,18.132,18.132,0,0,0,1.716,2.542,3.84,3.84,0,0,0,1.786,1.269,2.637,2.637,0,0,0,2.145-.365,2.635,2.635,0,0,0,1.389-1.674,3.848,3.848,0,0,0-.206-2.182,18.275,18.275,0,0,0-1.344-2.759,16.474,16.474,0,0,0-1.691-2.473,4.027,4.027,0,0,0-1.78-1.259,2.081,2.081,0,0,0-.653-.1A2.99,2.99,0,0,0-199.9,2760.16ZM-337.576,2772.4a12.223,12.223,0,0,1-4.576-4.924,12.043,12.043,0,0,1-1.953-6.383q.123-2.788,3.137-4.527t5.488-.454a12.044,12.044,0,0,1,4.551,4.883,12.223,12.223,0,0,1,1.977,6.424q-.112,2.807-3.125,4.549a6.573,6.573,0,0,1-3.27.993A4.732,4.732,0,0,1-337.576,2772.4Zm-1.831-13.132a2.578,2.578,0,0,0-1.372,1.679,4.027,4.027,0,0,0,.2,2.171,16.464,16.464,0,0,0,1.3,2.7,18.268,18.268,0,0,0,1.717,2.542,3.833,3.833,0,0,0,1.786,1.269,2.633,2.633,0,0,0,2.145-.365,2.634,2.634,0,0,0,1.389-1.674,3.84,3.84,0,0,0-.206-2.182,18.165,18.165,0,0,0-1.343-2.758,16.56,16.56,0,0,0-1.691-2.474,4.03,4.03,0,0,0-1.78-1.258,2.058,2.058,0,0,0-.653-.105A3,3,0,0,0-339.407,2759.263Zm95.245-.692-2.016,1.164-1.548-2.681,5.009-2.892,8.748,15.152-2.993,1.727Zm-42.752,11.851a12.229,12.229,0,0,1-4.575-4.925,12.035,12.035,0,0,1-1.953-6.382q.123-2.788,3.137-4.527t5.488-.454a12.046,12.046,0,0,1,4.551,4.883,12.225,12.225,0,0,1,1.977,6.425,5.434,5.434,0,0,1-3.125,4.547,6.562,6.562,0,0,1-3.271.994A4.729,4.729,0,0,1-286.914,2770.422Zm-1.831-13.132a2.576,2.576,0,0,0-1.373,1.679,4.034,4.034,0,0,0,.2,2.171,16.508,16.508,0,0,0,1.3,2.7,18.283,18.283,0,0,0,1.717,2.543,3.836,3.836,0,0,0,1.786,1.268,2.632,2.632,0,0,0,2.145-.365,2.635,2.635,0,0,0,1.389-1.675,3.837,3.837,0,0,0-.206-2.181,18.258,18.258,0,0,0-1.343-2.759,16.581,16.581,0,0,0-1.691-2.473,4.039,4.039,0,0,0-1.78-1.259,2.088,2.088,0,0,0-.653-.1A2.99,2.99,0,0,0-288.744,2757.291Zm51.772-2.87-2.016,1.164-1.548-2.681,5.008-2.891,8.748,15.151-2.992,1.728Zm52,11.312a12.224,12.224,0,0,1-4.576-4.925,12.037,12.037,0,0,1-1.953-6.382q.123-2.788,3.137-4.527t5.488-.454a12.043,12.043,0,0,1,4.551,4.884,12.219,12.219,0,0,1,1.977,6.423q-.112,2.808-3.125,4.548a6.57,6.57,0,0,1-3.27.994A4.723,4.723,0,0,1-184.972,2765.732ZM-186.8,2752.6a2.574,2.574,0,0,0-1.372,1.679,4.027,4.027,0,0,0,.2,2.171,16.46,16.46,0,0,0,1.3,2.7,18.266,18.266,0,0,0,1.717,2.542,3.848,3.848,0,0,0,1.786,1.27,2.64,2.64,0,0,0,2.145-.366,2.635,2.635,0,0,0,1.389-1.675,3.838,3.838,0,0,0-.206-2.181,18.129,18.129,0,0,0-1.343-2.759,16.542,16.542,0,0,0-1.691-2.473,4.037,4.037,0,0,0-1.78-1.259,2.081,2.081,0,0,0-.653-.1A2.99,2.99,0,0,0-186.8,2752.6Zm-137.68,12.236a12.222,12.222,0,0,1-4.575-4.924,12.043,12.043,0,0,1-1.953-6.383q.123-2.788,3.137-4.527t5.489-.453a12.035,12.035,0,0,1,4.55,4.883,12.223,12.223,0,0,1,1.977,6.424q-.111,2.808-3.125,4.548a6.565,6.565,0,0,1-3.269.994A4.732,4.732,0,0,1-324.483,2764.836Zm-1.832-13.132a2.574,2.574,0,0,0-1.372,1.679,4.017,4.017,0,0,0,.2,2.171,16.55,16.55,0,0,0,1.3,2.7,18.111,18.111,0,0,0,1.717,2.542,3.833,3.833,0,0,0,1.786,1.269,2.636,2.636,0,0,0,2.145-.365,2.637,2.637,0,0,0,1.389-1.674,3.848,3.848,0,0,0-.206-2.182,18.247,18.247,0,0,0-1.343-2.757,16.484,16.484,0,0,0-1.692-2.475,4.033,4.033,0,0,0-1.779-1.259,2.085,2.085,0,0,0-.653-.1A3,3,0,0,0-326.315,2751.7Zm46.87.578-2.016,1.164-1.548-2.681,5.009-2.893,8.748,15.152-2.992,1.728Zm-91.849-.409-2.016,1.164-1.548-2.681,5.009-2.893,8.748,15.152-2.993,1.728Zm147.136,8.979a12.233,12.233,0,0,1-4.575-4.926,12.03,12.03,0,0,1-1.953-6.383q.123-2.786,3.136-4.526t5.489-.454a12.04,12.04,0,0,1,4.55,4.883,12.223,12.223,0,0,1,1.977,6.424q-.111,2.808-3.125,4.548a6.568,6.568,0,0,1-3.27.994A4.736,4.736,0,0,1-224.158,2760.852Zm-1.831-13.133a2.571,2.571,0,0,0-1.372,1.678,4.018,4.018,0,0,0,.2,2.171,16.523,16.523,0,0,0,1.3,2.7,18.191,18.191,0,0,0,1.716,2.542,3.84,3.84,0,0,0,1.786,1.269,2.636,2.636,0,0,0,2.145-.365,2.637,2.637,0,0,0,1.389-1.675,3.845,3.845,0,0,0-.206-2.181,18.274,18.274,0,0,0-1.344-2.759,16.474,16.474,0,0,0-1.691-2.473,4.027,4.027,0,0,0-1.78-1.259,2.081,2.081,0,0,0-.653-.1A2.99,2.99,0,0,0-225.989,2747.719Zm-138.114,0-2.016,1.166-1.548-2.682,5.009-2.893,8.748,15.153-2.993,1.728Zm186.6-.131-2.016,1.165-1.548-2.681,5.008-2.893,8.748,15.152-2.993,1.728Zm-89.127,11.121a12.2,12.2,0,0,1-4.575-4.924,12.03,12.03,0,0,1-1.953-6.383q.123-2.786,3.137-4.527t5.489-.453a12.04,12.04,0,0,1,4.55,4.883,12.223,12.223,0,0,1,1.977,6.424q-.111,2.808-3.125,4.549a6.573,6.573,0,0,1-3.269.993A4.732,4.732,0,0,1-266.63,2758.712Zm-1.832-13.131a2.572,2.572,0,0,0-1.372,1.679,4.015,4.015,0,0,0,.2,2.17,16.522,16.522,0,0,0,1.3,2.7,18.189,18.189,0,0,0,1.716,2.542,3.847,3.847,0,0,0,1.786,1.269,2.637,2.637,0,0,0,2.145-.365,2.637,2.637,0,0,0,1.389-1.674,3.848,3.848,0,0,0-.206-2.182,18.229,18.229,0,0,0-1.344-2.759,16.426,16.426,0,0,0-1.691-2.473,4.021,4.021,0,0,0-1.78-1.259,2.081,2.081,0,0,0-.653-.105A2.992,2.992,0,0,0-268.462,2745.581Zm-48.553,1.115-2.016,1.164-1.548-2.681,5.009-2.892,8.748,15.151-2.993,1.728Zm100.326-3.986-2.016,1.165-1.548-2.681,5.009-2.893,8.748,15.152-2.993,1.728Zm-93.136-.166-2.016,1.165-1.548-2.682,5.009-2.892,8.748,15.153-2.993,1.728Zm-41.464,11.608a12.213,12.213,0,0,1-4.575-4.924,12.041,12.041,0,0,1-1.953-6.383q.123-2.786,3.137-4.527t5.489-.453a12.032,12.032,0,0,1,4.55,4.883,12.223,12.223,0,0,1,1.977,6.424q-.111,2.81-3.125,4.548a6.565,6.565,0,0,1-3.269.994A4.73,4.73,0,0,1-351.289,2754.152Zm-1.832-13.132a2.574,2.574,0,0,0-1.372,1.679,4.017,4.017,0,0,0,.2,2.171,16.478,16.478,0,0,0,1.3,2.7,18.175,18.175,0,0,0,1.716,2.542,3.841,3.841,0,0,0,1.786,1.269,2.635,2.635,0,0,0,2.145-.365,2.638,2.638,0,0,0,1.389-1.675,3.848,3.848,0,0,0-.206-2.182,18.224,18.224,0,0,0-1.344-2.758,16.492,16.492,0,0,0-1.691-2.474,4.019,4.019,0,0,0-1.78-1.258,2.064,2.064,0,0,0-.653-.1A3,3,0,0,0-353.12,2741.02Zm188.431,13a12.215,12.215,0,0,1-4.575-4.924,12.042,12.042,0,0,1-1.953-6.383q.123-2.786,3.137-4.527t5.489-.453a12.033,12.033,0,0,1,4.55,4.882,12.223,12.223,0,0,1,1.977,6.424q-.111,2.808-3.125,4.548a6.565,6.565,0,0,1-3.269.994A4.732,4.732,0,0,1-164.689,2754.022Zm-1.831-13.131a2.571,2.571,0,0,0-1.372,1.678,4.018,4.018,0,0,0,.2,2.171,16.5,16.5,0,0,0,1.3,2.7,18.063,18.063,0,0,0,1.716,2.542,3.849,3.849,0,0,0,1.786,1.27,2.639,2.639,0,0,0,2.145-.365,2.638,2.638,0,0,0,1.389-1.675,3.848,3.848,0,0,0-.206-2.182,18.268,18.268,0,0,0-1.344-2.758,16.553,16.553,0,0,0-1.691-2.474,4.02,4.02,0,0,0-1.78-1.258,2.049,2.049,0,0,0-.653-.1A3,3,0,0,0-166.521,2740.891Zm-92.641-.32-2.016,1.164-1.548-2.681,5.009-2.892,8.748,15.152-2.993,1.727Zm49.663-2.012-2.016,1.164-1.548-2.681,5.009-2.892,8.748,15.152-2.993,1.728Zm-87.512,10.416a12.222,12.222,0,0,1-4.575-4.923,12.048,12.048,0,0,1-1.953-6.384q.123-2.786,3.137-4.527t5.489-.453a12.039,12.039,0,0,1,4.551,4.883,12.221,12.221,0,0,1,1.976,6.424q-.111,2.808-3.125,4.548a6.565,6.565,0,0,1-3.269.994A4.732,4.732,0,0,1-297.011,2748.974Zm-1.831-13.131a2.572,2.572,0,0,0-1.372,1.678,4.035,4.035,0,0,0,.2,2.171,16.565,16.565,0,0,0,1.3,2.7,18.251,18.251,0,0,0,1.717,2.541,3.847,3.847,0,0,0,1.786,1.27,2.638,2.638,0,0,0,2.145-.365,2.635,2.635,0,0,0,1.389-1.675,3.836,3.836,0,0,0-.206-2.181,18.166,18.166,0,0,0-1.343-2.759,16.487,16.487,0,0,0-1.692-2.474,4.021,4.021,0,0,0-1.779-1.258,2.086,2.086,0,0,0-.653-.105A2.992,2.992,0,0,0-298.841,2735.844Zm46.869.577-2.016,1.164-1.548-2.681,5.009-2.891,8.748,15.151-2.993,1.728Zm-91.849-.409-2.016,1.164-1.548-2.681,5.009-2.892,8.748,15.151-2.993,1.728Zm186.6-.13-2.016,1.164-1.548-2.681,5.009-2.892,8.748,15.152-2.993,1.728Zm-222.71,10.573a12.214,12.214,0,0,1-4.576-4.924,12.042,12.042,0,0,1-1.953-6.383q.123-2.786,3.137-4.527t5.488-.453a12.034,12.034,0,0,1,4.551,4.884,12.217,12.217,0,0,1,1.977,6.423q-.112,2.808-3.125,4.548a6.565,6.565,0,0,1-3.27.994A4.729,4.729,0,0,1-379.931,2746.454Zm-1.832-13.132a2.578,2.578,0,0,0-1.372,1.679,4.027,4.027,0,0,0,.2,2.171,16.436,16.436,0,0,0,1.3,2.7,18.271,18.271,0,0,0,1.717,2.542,3.838,3.838,0,0,0,1.786,1.269,2.631,2.631,0,0,0,2.145-.365,2.629,2.629,0,0,0,1.389-1.674,3.84,3.84,0,0,0-.206-2.182,18.125,18.125,0,0,0-1.343-2.758,16.558,16.558,0,0,0-1.691-2.474,4.025,4.025,0,0,0-1.78-1.258,2.086,2.086,0,0,0-.653-.105A3,3,0,0,0-381.762,2733.323Zm185.077,11.667a12.229,12.229,0,0,1-4.575-4.925,12.037,12.037,0,0,1-1.953-6.382q.123-2.788,3.136-4.527t5.489-.454a12.052,12.052,0,0,1,4.551,4.883,12.222,12.222,0,0,1,1.976,6.424q-.111,2.808-3.125,4.548a6.565,6.565,0,0,1-3.27.994A4.728,4.728,0,0,1-196.685,2744.989Zm-1.831-13.132a2.573,2.573,0,0,0-1.372,1.679,4.034,4.034,0,0,0,.2,2.171,16.548,16.548,0,0,0,1.3,2.7,18.109,18.109,0,0,0,1.717,2.542,3.834,3.834,0,0,0,1.786,1.269,2.632,2.632,0,0,0,2.145-.365,2.638,2.638,0,0,0,1.389-1.675,3.845,3.845,0,0,0-.206-2.181,18.215,18.215,0,0,0-1.343-2.759,16.578,16.578,0,0,0-1.692-2.473,4.032,4.032,0,0,0-1.779-1.259,2.087,2.087,0,0,0-.653-.1A2.99,2.99,0,0,0-198.516,2731.857Zm-138.115,0-2.016,1.165-1.548-2.681,5.009-2.893,8.748,15.152-2.993,1.728Zm97.473,10.992a12.239,12.239,0,0,1-4.575-4.926,12.038,12.038,0,0,1-1.953-6.383q.123-2.786,3.137-4.526.135-.078.268-.149h5.75a12.866,12.866,0,0,1,4.022,4.578,12.221,12.221,0,0,1,1.976,6.424q-.111,2.808-3.125,4.548a6.565,6.565,0,0,1-3.27.994A4.738,4.738,0,0,1-239.158,2742.852Zm-1.831-13.133a2.569,2.569,0,0,0-1.372,1.678,4.027,4.027,0,0,0,.2,2.171,16.523,16.523,0,0,0,1.3,2.7,18.11,18.11,0,0,0,1.717,2.542,3.834,3.834,0,0,0,1.786,1.269,2.636,2.636,0,0,0,2.145-.365,2.637,2.637,0,0,0,1.389-1.675,3.845,3.845,0,0,0-.206-2.181,18.258,18.258,0,0,0-1.343-2.759,16.542,16.542,0,0,0-1.692-2.473,4.029,4.029,0,0,0-1.779-1.259,2.08,2.08,0,0,0-.653-.1A2.99,2.99,0,0,0-240.989,2729.719Zm-48.553,1.115-2.016,1.164-1.548-2.681,4.242-2.449h1.023l8.492,14.709-2.992,1.728Zm-82.921-2.52-2.016,1.164-1.507-2.61h6.68l7.037,12.189-2.993,1.728Zm48.646,9.977a12.219,12.219,0,0,1-4.575-4.924,12.039,12.039,0,0,1-1.953-6.383c0-.039,0-.078.006-.116h3.312a4.049,4.049,0,0,0,.206,2.141,16.514,16.514,0,0,0,1.3,2.7,18.188,18.188,0,0,0,1.717,2.542,3.847,3.847,0,0,0,1.786,1.269,2.638,2.638,0,0,0,2.145-.365,2.639,2.639,0,0,0,1.389-1.676,3.849,3.849,0,0,0-.206-2.182,18.239,18.239,0,0,0-1.343-2.758q-.551-.953-1.068-1.675h3.926l.011.019a12.221,12.221,0,0,1,1.976,6.424q-.111,2.808-3.125,4.548a6.564,6.564,0,0,1-3.269.993A4.732,4.732,0,0,1-323.816,2738.291Zm140.225-.86a12.223,12.223,0,0,1-4.575-4.925,13.036,13.036,0,0,1-1.948-5.638h3.253a4.588,4.588,0,0,0,.266,1.282,16.529,16.529,0,0,0,1.3,2.7,18.266,18.266,0,0,0,1.717,2.542,3.842,3.842,0,0,0,1.786,1.269,2.636,2.636,0,0,0,2.145-.365,2.638,2.638,0,0,0,1.389-1.675,3.838,3.838,0,0,0-.207-2.181,18.118,18.118,0,0,0-1.343-2.759q-.248-.43-.49-.814h3.821a11.354,11.354,0,0,1,1.515,5.582q-.111,2.81-3.125,4.548a6.57,6.57,0,0,1-3.27.994A4.723,4.723,0,0,1-183.592,2737.43Zm-93.136-.166a12.232,12.232,0,0,1-4.576-4.924,13.283,13.283,0,0,1-1.936-5.473h3.254a4.7,4.7,0,0,0,.254,1.115,16.568,16.568,0,0,0,1.3,2.7,18.315,18.315,0,0,0,1.717,2.542,3.842,3.842,0,0,0,1.786,1.269,2.637,2.637,0,0,0,2.145-.365,2.636,2.636,0,0,0,1.389-1.675,3.839,3.839,0,0,0-.207-2.181,18.125,18.125,0,0,0-1.343-2.758q-.2-.339-.387-.649h3.8a11.186,11.186,0,0,1,1.43,5.417q-.111,2.807-3.125,4.547a6.57,6.57,0,0,1-3.27.993A4.725,4.725,0,0,1-276.728,2737.265Zm50.663-1.973a12.23,12.23,0,0,1-4.576-4.925,16.374,16.374,0,0,1-1.558-3.5h3.474a20.106,20.106,0,0,0,.952,1.844,18.309,18.309,0,0,0,1.717,2.542,3.847,3.847,0,0,0,1.786,1.269,2.636,2.636,0,0,0,2.145-.365,2.637,2.637,0,0,0,1.389-1.675,3.838,3.838,0,0,0-.207-2.181,14.142,14.142,0,0,0-.627-1.434h3.549a9.387,9.387,0,0,1,.581,3.444q-.111,2.808-3.125,4.548a6.57,6.57,0,0,1-3.27.994A4.723,4.723,0,0,1-226.065,2735.292Zm-133.583-.547a12.223,12.223,0,0,1-4.575-4.925,17.292,17.292,0,0,1-1.382-2.952h3.554q.3.611.7,1.3a18.123,18.123,0,0,0,1.717,2.542,3.835,3.835,0,0,0,1.786,1.269,2.636,2.636,0,0,0,2.145-.365,2.638,2.638,0,0,0,1.389-1.675,3.846,3.846,0,0,0-.206-2.181q-.153-.418-.367-.886h3.464a8.945,8.945,0,0,1,.4,2.9q-.111,2.808-3.125,4.548a6.567,6.567,0,0,1-3.27.993A4.728,4.728,0,0,1-359.648,2734.745Zm47.179-7.877h3.99l2.324,4.025-2.992,1.728Zm47.681,0h3.991l1.731,3-2.993,1.728Zm94.289,3a10.2,10.2,0,0,1-3.316-3h4.557a3.2,3.2,0,0,0,.556.234,2.5,2.5,0,0,0,1.9-.234h4.427a6.371,6.371,0,0,1-2.623,2.571,6.565,6.565,0,0,1-3.27.994A4.731,4.731,0,0,1-170.5,2729.871Zm-175.754-3h3.991l.276.479-2.993,1.728Zm133.282.864a7.969,7.969,0,0,1-1.3-.864h7.482q-.319.224-.68.432a6.565,6.565,0,0,1-3.269.994A4.732,4.732,0,0,1-212.972,2727.732Zm-42.229-.864h1.328l-1,.575Zm-47.681,0h3.254a5.525,5.525,0,0,1-1.674.275A4.649,4.649,0,0,1-302.882,2726.868Z" transform="translate(1636.969 -2309.867)" fill="#fff" stroke="rgba(0,0,0,0)" stroke-width="1"/>
  </g>
</svg>
