<svg xmlns="http://www.w3.org/2000/svg" width="46.674" height="40.015" viewBox="0 0 46.674 40.015">
  <g id="Icon_ionic-ios-folder-open" data-name="Icon ionic-ios-folder-open" transform="translate(-2.252 -4.5)" opacity="0.82">
    <path id="Path_524" data-name="Path 524" d="M41.719,12.638c0-1.968-.911-3.4-2.21-3.4H20.677a.62.62,0,0,1-.591-.355L17.9,5.551l-.019-.03A1.837,1.837,0,0,0,16.208,4.5H6.894C5.556,4.5,4.5,6.024,4.5,7.9V18.7H41.719Z" transform="translate(2.483 0)" fill="#349fa7"/>
    <path id="Path_525" data-name="Path 525" d="M5.584,13.219H4.719c-1.334,0-2.636.425-2.449,2.025S4.719,32.8,4.719,32.8a2.353,2.353,0,0,0,2.605,2.083H44.057a2.193,2.193,0,0,0,2.4-2.083s2.313-15.409,2.459-17.126-.927-2.458-2.459-2.458H5.584Z" transform="translate(0 9.629)" fill="#349fa7"/>
  </g>
</svg>
