<svg xmlns="http://www.w3.org/2000/svg" width="17.383" height="19.121" viewBox="0 0 17.383 19.121">
  <g id="Icon_feather-lock" data-name="Icon feather-lock" transform="translate(-3 -1.5)">
    <path id="Path_595" data-name="Path 595" d="M5.607,15H17.776a2.61,2.61,0,0,1,2.607,2.607v6.084A2.61,2.61,0,0,1,17.776,26.3H5.607A2.61,2.61,0,0,1,3,23.692V17.607A2.61,2.61,0,0,1,5.607,15Zm12.168,9.561a.87.87,0,0,0,.869-.869V17.607a.87.87,0,0,0-.869-.869H5.607a.87.87,0,0,0-.869.869v6.084a.87.87,0,0,0,.869.869Z" transform="translate(0 -5.678)" fill="#1b478e"/>
    <path id="Path_596" data-name="Path 596" d="M18.561,11.061a.869.869,0,0,1-.869-.869V6.715a3.477,3.477,0,0,0-6.953,0v3.477a.869.869,0,1,1-1.738,0V6.715a5.215,5.215,0,1,1,10.43,0v3.477A.869.869,0,0,1,18.561,11.061Z" transform="translate(-2.523)" fill="#1b478e"/>
  </g>
</svg>
