<svg xmlns="http://www.w3.org/2000/svg" width="12.146" height="10.413" viewBox="0 0 12.146 10.413">
  <g id="Icon_ionic-ios-folder-open" data-name="Icon ionic-ios-folder-open" transform="translate(-2.252 -4.5)">
    <path id="Path_553" data-name="Path 553" d="M14.913,5.991a.6.6,0,0,0-.618-.624H9.026A.2.2,0,0,1,8.86,5.3l-.61-.61-.005-.005A.589.589,0,0,0,7.776,4.5H5.17a.645.645,0,0,0-.67.624V7.1H14.913Z" transform="translate(-1.381)" fill="#656565"/>
    <path id="Path_554" data-name="Path 554" d="M3.119,13.219H2.894c-.347,0-.686.138-.637.659s.637,5.714.637,5.714c.073.483.317.678.678.678h9.559c.344,0,.569-.212.624-.678,0,0,.6-5.014.64-5.573s-.241-.8-.64-.8H3.119Z" transform="translate(0 -5.356)" fill="#656565"/>
  </g>
</svg>
