<svg id="Icon_feather-settings" data-name="Icon feather-settings" xmlns="http://www.w3.org/2000/svg" width="21.213" height="21.213" viewBox="0 0 21.213 21.213">
  <path id="Path_595" data-name="Path 595" d="M15.536,12A3.536,3.536,0,1,1,12,15.536,3.54,3.54,0,0,1,15.536,12Zm0,5.3a1.768,1.768,0,1,0-1.768-1.768A1.77,1.77,0,0,0,15.536,17.3Z" transform="translate(-4.929 -4.929)" fill="#1b478e"/>
  <path id="Path_596" data-name="Path 596" d="M10.677,21.213a2.655,2.655,0,0,1-2.652-2.652v-.067a.571.571,0,0,0-.376-.518L7.6,17.956a.574.574,0,0,0-.631.112l-.049.049a2.653,2.653,0,1,1-3.751-3.752l.048-.048a.572.572,0,0,0,.112-.631l0-.009a.574.574,0,0,0-.525-.348H2.652a2.652,2.652,0,0,1,0-5.3h.067a.571.571,0,0,0,.518-.376q.01-.026.021-.052a.572.572,0,0,0-.112-.631L3.1,6.918A2.653,2.653,0,1,1,6.848,3.167l.048.048a.574.574,0,0,0,.631.112A.884.884,0,0,1,7.7,3.271.574.574,0,0,0,7.955,2.8V2.652a2.652,2.652,0,1,1,5.3,0v.077a.574.574,0,0,0,.348.525l.009,0a.574.574,0,0,0,.631-.112l.049-.049a2.653,2.653,0,1,1,3.751,3.752L18,6.9a.572.572,0,0,0-.112.631.884.884,0,0,1,.057.176.574.574,0,0,0,.472.252h.148a2.652,2.652,0,1,1,0,5.3h-.077a.574.574,0,0,0-.525.348l0,.009a.572.572,0,0,0,.112.631l.049.049a2.653,2.653,0,1,1-3.752,3.751L14.317,18a.574.574,0,0,0-.631-.112l-.009,0a.574.574,0,0,0-.348.525v.148A2.655,2.655,0,0,1,10.677,21.213ZM8.286,16.328a2.329,2.329,0,0,1,1.507,2.134q0,.01,0,.021v.08a.884.884,0,1,0,1.768,0v-.15s0,0,0,0a2.352,2.352,0,0,1,3.994-1.671l.007.007.053.053a.885.885,0,1,0,1.252-1.251l-.053-.053-.007-.007a2.354,2.354,0,0,1,1.671-3.994h.083a.884.884,0,1,0,0-1.768h-.154A2.341,2.341,0,0,1,16.264,8.3.884.884,0,0,1,16.2,8.07a2.33,2.33,0,0,1,.536-2.413l.007-.007L16.8,5.6a.885.885,0,1,0-1.251-1.252l-.053.053-.007.007A2.354,2.354,0,0,1,11.49,2.735s0,0,0,0v-.08a.884.884,0,1,0-1.768,0V2.8s0,0,0,0A2.341,2.341,0,0,1,8.3,4.949a.884.884,0,0,1-.233.064,2.343,2.343,0,0,1-2.413-.536L5.651,4.47,5.6,4.417A.885.885,0,1,0,4.346,5.668l.053.053.007.007a2.331,2.331,0,0,1,.48,2.558A2.329,2.329,0,0,1,2.752,9.793h-.1a.884.884,0,1,0,0,1.768h.154a2.354,2.354,0,0,1,1.671,3.994l-.007.007-.053.053a.885.885,0,1,0,1.251,1.252l.053-.053.007-.007a2.342,2.342,0,0,1,2.558-.48Z" fill="#1b478e"/>
</svg>
