<svg xmlns="http://www.w3.org/2000/svg" width="18.459" height="14.998" viewBox="0 0 18.459 14.998">
  <path id="Icon_awesome-list" data-name="Icon awesome-list" d="M2.884,14.912H.577A.577.577,0,0,0,0,15.489V17.8a.577.577,0,0,0,.577.577H2.884a.577.577,0,0,0,.577-.577V15.489A.577.577,0,0,0,2.884,14.912Zm0-11.537H.577A.577.577,0,0,0,0,3.952V6.259a.577.577,0,0,0,.577.577H2.884a.577.577,0,0,0,.577-.577V3.952A.577.577,0,0,0,2.884,3.375Zm0,5.768H.577A.577.577,0,0,0,0,9.72v2.307a.577.577,0,0,0,.577.577H2.884a.577.577,0,0,0,.577-.577V9.72A.577.577,0,0,0,2.884,9.143Zm15,6.345H6.345a.577.577,0,0,0-.577.577v1.154a.577.577,0,0,0,.577.577H17.882a.577.577,0,0,0,.577-.577V16.066A.577.577,0,0,0,17.882,15.489Zm0-11.537H6.345a.577.577,0,0,0-.577.577V5.682a.577.577,0,0,0,.577.577H17.882a.577.577,0,0,0,.577-.577V4.529A.577.577,0,0,0,17.882,3.952Zm0,5.768H6.345a.577.577,0,0,0-.577.577v1.154a.577.577,0,0,0,.577.577H17.882a.577.577,0,0,0,.577-.577V10.3A.577.577,0,0,0,17.882,9.72Z" transform="translate(0 -3.375)" fill="#9f9f9f"/>
</svg>
