<svg xmlns="http://www.w3.org/2000/svg" width="10.119" height="13.304" viewBox="0 0 10.119 13.304">
  <g id="man-user" transform="translate(-41.895)">
    <path id="Path_20" data-name="Path 20" d="M107.214,6.507a3.008,3.008,0,0,0,2.678-3.253c0-1.8-.394-3.253-2.678-3.253s-2.679,1.457-2.679,3.253A3.008,3.008,0,0,0,107.214,6.507Z" transform="translate(-60.259 0)" fill="#656565"/>
    <path id="Path_21" data-name="Path 21" d="M41.9,300.428c0-.11,0-.031,0,0Z" transform="translate(0 -288.954)" fill="#656565"/>
    <path id="Path_22" data-name="Path 22" d="M308.085,301.586c0-.03,0-.208,0,0Z" transform="translate(-256.071 -290.026)" fill="#656565"/>
    <path id="Path_23" data-name="Path 23" d="M52.02,182.326c-.05-3.13-.458-4.022-3.587-4.586a2.2,2.2,0,0,1-2.933,0c-3.094.558-3.528,1.437-3.585,4.485,0,.249-.007.262-.008.233,0,.054,0,.154,0,.329,0,0,.745,1.5,5.059,1.5s5.059-1.5,5.059-1.5c0-.112,0-.19,0-.243A2.017,2.017,0,0,1,52.02,182.326Z" transform="translate(-0.012 -170.984)" fill="#656565"/>
  </g>
</svg>
