<svg xmlns="http://www.w3.org/2000/svg" width="22.5" height="18.657" viewBox="0 0 22.5 18.657">
  <g id="users" transform="translate(0 -43.729)">
    <g id="Group_515" data-name="Group 515" transform="translate(0 51.901)">
      <g id="Group_514" data-name="Group 514">
        <path id="Path_591" data-name="Path 591" d="M19.2,231.371H17a3.287,3.287,0,0,0-.866.116A3.3,3.3,0,0,0,13.2,229.68H9.3a3.3,3.3,0,0,0-2.939,1.807,3.287,3.287,0,0,0-.866-.116H3.3a3.3,3.3,0,0,0-3.3,3.3v3.521a1.98,1.98,0,0,0,1.978,1.978H20.522a1.98,1.98,0,0,0,1.978-1.978v-3.521A3.3,3.3,0,0,0,19.2,231.371Zm-13.2,1.605v5.871H1.978a.66.66,0,0,1-.659-.659v-3.521A1.98,1.98,0,0,1,3.3,232.689H5.5a1.971,1.971,0,0,1,.517.069C6.011,232.83,6.008,232.9,6.008,232.976Zm9.167,5.871H7.326v-5.871A1.98,1.98,0,0,1,9.3,231H13.2a1.98,1.98,0,0,1,1.978,1.978Zm6.008-.659a.66.66,0,0,1-.659.659h-4.03v-5.871c0-.073,0-.146-.008-.218a1.973,1.973,0,0,1,.517-.069h2.2a1.98,1.98,0,0,1,1.978,1.978Z" transform="translate(0 -229.68)" fill="#1b478e"/>
      </g>
    </g>
    <g id="Group_517" data-name="Group 517" transform="translate(1.468 47.367)">
      <g id="Group_516" data-name="Group 516">
        <path id="Path_592" data-name="Path 592" d="M36.343,126.5a2.929,2.929,0,1,0,2.929,2.929A2.932,2.932,0,0,0,36.343,126.5Zm0,4.539a1.61,1.61,0,1,1,1.61-1.61A1.612,1.612,0,0,1,36.343,131.043Z" transform="translate(-33.414 -126.504)" fill="#1b478e"/>
      </g>
    </g>
    <g id="Group_519" data-name="Group 519" transform="translate(7.337 43.729)">
      <g id="Group_518" data-name="Group 518">
        <path id="Path_593" data-name="Path 593" d="M170.875,43.729a3.913,3.913,0,1,0,3.913,3.913A3.917,3.917,0,0,0,170.875,43.729Zm0,6.507a2.594,2.594,0,1,1,2.594-2.594A2.6,2.6,0,0,1,170.875,50.236Z" transform="translate(-166.962 -43.729)" fill="#1b478e"/>
      </g>
    </g>
    <g id="Group_521" data-name="Group 521" transform="translate(15.174 47.367)">
      <g id="Group_520" data-name="Group 520">
        <path id="Path_594" data-name="Path 594" d="M348.223,126.5a2.929,2.929,0,1,0,2.929,2.929A2.932,2.932,0,0,0,348.223,126.5Zm0,4.539a1.61,1.61,0,1,1,1.61-1.61A1.612,1.612,0,0,1,348.223,131.043Z" transform="translate(-345.294 -126.504)" fill="#1b478e"/>
      </g>
    </g>
  </g>
</svg>
