<svg xmlns="http://www.w3.org/2000/svg" width="22.5" height="22.481" viewBox="0 0 22.5 22.481">
  <g id="workflow" transform="translate(0 -0.054)">
    <path id="Path_573" data-name="Path 573" d="M4.922,20H1.406A1.406,1.406,0,0,0,0,21.406v3.516a1.406,1.406,0,0,0,1.406,1.406H4.922a1.406,1.406,0,0,0,1.406-1.406V21.406A1.406,1.406,0,0,0,4.922,20ZM1.406,24.922V21.406H4.922v3.516Z" transform="translate(0 -12.934)" fill="#1b478e"/>
    <path id="Path_574" data-name="Path 574" d="M29.328,24.922V21.406A1.406,1.406,0,0,0,27.922,20H24.406A1.406,1.406,0,0,0,23,21.406v3.516a1.406,1.406,0,0,0,1.406,1.406h3.516A1.406,1.406,0,0,0,29.328,24.922Zm-4.922-3.516h3.516v3.516H24.406Z" transform="translate(-14.914 -12.934)" fill="#1b478e"/>
    <path id="Path_575" data-name="Path 575" d="M50.922,20H47.406A1.406,1.406,0,0,0,46,21.406v3.516a1.406,1.406,0,0,0,1.406,1.406h3.516a1.406,1.406,0,0,0,1.406-1.406V21.406A1.406,1.406,0,0,0,50.922,20Zm-3.516,4.922V21.406h3.516v3.516Z" transform="translate(-29.828 -12.934)" fill="#1b478e"/>
    <path id="Path_576" data-name="Path 576" d="M15.2,3.7a.738.738,0,0,0-1.1.239.7.7,0,0,0,.316.942l1.406.7a.7.7,0,0,0,.875-.207l1.055-1.406a.7.7,0,0,0-.141-.984.735.735,0,0,0-1.083.271A4.922,4.922,0,0,0,7,4.957a.7.7,0,1,0,1.406,0A3.516,3.516,0,0,1,15.2,3.7Z" transform="translate(-4.539 0)" fill="#1b478e"/>
    <path id="Path_577" data-name="Path 577" d="M39.7,42.281a.7.7,0,0,0-.875-.207l-1.406.7a.7.7,0,0,0-.316.942.738.738,0,0,0,1.1.239,3.516,3.516,0,0,1-6.8-1.255A.7.7,0,0,0,30,42.7a4.922,4.922,0,0,0,9.534,1.7.735.735,0,0,0,1.083.271.7.7,0,0,0,.141-.984Z" transform="translate(-19.453 -27.2)" fill="#1b478e"/>
    <path id="Path_578" data-name="Path 578" d="M50.333,9.308a.7.7,0,0,0,.918.067l2.812-2.109a.7.7,0,1,0-.844-1.125L50.9,7.9l-.626-.636a.7.7,0,0,0-.991.991Z" transform="translate(-31.844 -3.856)" fill="#1b478e"/>
    <path id="Path_579" data-name="Path 579" d="M6.937,43.2,5.531,42.141a.7.7,0,0,0-.844,0L3.281,43.2a.7.7,0,0,0-.141.984c.341.464.914.281,1.266-.07v2.109a.7.7,0,0,0,1.406,0V44.109c.352.352.925.534,1.266.07a.7.7,0,0,0-.141-.984Z" transform="translate(-1.945 -27.2)" fill="#1b478e"/>
    <circle id="Ellipse_40" data-name="Ellipse 40" cx="0.703" cy="0.703" r="0.703" transform="translate(2.461 21.128)" fill="#1b478e"/>
  </g>
</svg>
